<svg width="111" height="111" viewBox="0 0 111 111" fill="none" xmlns="http://www.w3.org/2000/svg">
<circle cx="55.295" cy="55.295" r="55.295" fill="#B6E98B"/>
<path d="M34.6731 85.1698C32.5246 87.3183 29.1066 87.4196 27.0797 85.3927C25.0528 83.3658 25.1542 79.9478 27.3027 77.7993L70.1712 34.9308C72.3215 32.7804 75.7377 32.6809 77.7646 34.7078C79.7933 36.7347 79.692 40.1527 77.5417 42.3012L34.6731 85.1698Z" fill="#D67909"/>
<path d="M82.1593 37.9582C83.5984 36.5191 83.5984 34.1845 82.1593 32.7454L79.5538 30.1399C78.1166 28.7027 75.782 28.7027 74.3429 30.1399C72.9038 31.579 72.9038 33.9136 74.3429 35.3527L76.9484 37.9582C78.3875 39.3973 80.7221 39.3973 82.1593 37.9582Z" fill="#D67909"/>
<path d="M82.1593 37.9582C83.5984 36.5191 83.5984 34.1845 82.1593 32.7454L79.5538 30.1399C78.1166 28.7027 75.782 28.7027 74.3429 30.1399C72.9038 31.579 72.9038 33.9136 74.3429 35.3527L76.9484 37.9582C78.3875 39.3973 80.7221 39.3973 82.1593 37.9582Z" fill="#D67909"/>
<path d="M88.063 48.5845C87.5987 45.3323 87.3721 40.5617 82.1593 35.3508L80.8566 34.0462L71.7374 24.9253C70.2984 23.4862 67.9638 23.4862 66.5265 24.9253L60.011 31.4408C58.5719 32.8798 58.5719 35.2126 60.011 36.6535L71.7374 48.38L75.6456 52.2882L78.2511 54.8936C80.1435 56.786 84.3575 61.0019 86.9446 58.4149C88.3689 56.9924 88.7153 53.145 88.063 48.5845Z" fill="#66757F"/>
<path d="M75.8943 85.1697C78.0428 87.3182 81.4627 87.4196 83.4878 85.3927C85.5147 83.3658 85.4133 79.9478 83.2648 77.7993L40.3981 34.9307C38.2478 32.7804 34.8297 32.6791 32.8047 34.7078C30.776 36.7347 30.8773 40.1527 33.0277 42.3012L75.8943 85.1697Z" fill="#F4900C"/>
<path d="M28.41 37.9582C26.9709 36.5191 26.9709 34.1845 28.41 32.7454L31.0155 30.1399C32.4527 28.7027 34.7873 28.7027 36.2264 30.1399C37.6655 31.579 37.6655 33.9136 36.2264 35.3527L33.6209 37.9582C32.1818 39.3973 29.8472 39.3973 28.41 37.9582Z" fill="#F4900C"/>
<path d="M29.7129 52.2919C31.1501 53.7292 33.4847 53.7292 34.9238 52.2919L50.5584 36.6573C51.9975 35.2182 51.9975 32.8836 50.5584 31.4445L44.0429 24.9309C42.6057 23.4918 40.2711 23.4918 38.832 24.9309L23.1974 40.5637C21.7583 42.0027 21.7583 44.3355 23.1974 45.7746L29.7129 52.2919Z" fill="#66757F"/>
</svg>
