<svg width="628" height="557" viewBox="0 0 628 557" fill="none" xmlns="http://www.w3.org/2000/svg">
<path fill-rule="evenodd" clip-rule="evenodd" d="M304.804 47.227C307.822 47.1103 310.854 47.0515 313.901 47.0515C316.947 47.0515 319.98 47.1103 322.998 47.227L322.651 56.1825C319.749 56.0703 316.831 56.0136 313.901 56.0136C310.97 56.0136 308.053 56.0703 305.15 56.1825L304.804 47.227ZM268.736 51.4568C274.642 50.2884 280.628 49.3447 286.686 48.635L287.728 57.5363C281.905 58.2186 276.151 59.1256 270.475 60.2486L268.736 51.4568ZM341.116 48.635C347.173 49.3447 353.16 50.2884 359.066 51.4568L357.326 60.2486C351.65 59.1256 345.896 58.2186 340.073 57.5364L341.116 48.635ZM233.77 61.2994C239.43 59.2106 245.195 57.3366 251.053 55.6874L253.481 64.3143C247.852 65.8991 242.312 67.6999 236.873 69.7073L233.77 61.2994ZM376.748 55.6874C382.607 57.3366 388.371 59.2106 394.031 61.2994L390.928 69.7073C385.489 67.7 379.95 65.8991 374.32 64.3143L376.748 55.6874ZM200.788 76.528C206.059 73.5695 211.459 70.8113 216.975 68.2637L220.733 76.4003C215.431 78.8487 210.241 81.4997 205.174 84.3435L200.788 76.528ZM410.826 68.2638C416.343 70.8113 421.742 73.5695 427.013 76.528L422.627 84.3435C417.56 81.4998 412.371 78.8487 407.069 76.4003L410.826 68.2638ZM170.606 96.7329C175.357 92.9822 180.259 89.4137 185.301 86.038L190.287 93.4853C185.44 96.7305 180.727 100.161 176.159 103.767L170.606 96.7329ZM442.5 86.0381C447.542 89.4137 452.444 92.9822 457.196 96.7329L451.643 103.767C447.074 100.161 442.362 96.7306 437.514 93.4854L442.5 86.0381ZM143.942 121.392C148.057 116.943 152.344 112.656 156.792 108.541L162.878 115.121C158.6 119.077 154.478 123.199 150.522 127.477L143.942 121.392ZM471.009 108.541C475.458 112.656 479.745 116.943 483.859 121.392L477.28 127.477C473.323 123.199 469.201 119.077 464.924 115.121L471.009 108.541ZM121.439 149.9C124.814 144.858 128.383 139.956 132.134 135.205L139.168 140.758C135.562 145.326 132.131 150.039 128.886 154.886L121.439 149.9ZM495.668 135.205C499.418 139.956 502.987 144.858 506.363 149.9L498.915 154.886C495.67 150.039 492.239 145.326 488.633 140.758L495.668 135.205ZM103.664 181.575C106.212 176.058 108.97 170.659 111.929 165.387L119.744 169.773C116.9 174.84 114.249 180.03 111.801 185.332L103.664 181.575ZM515.873 165.387C518.831 170.659 521.589 176.058 524.137 181.575L516 185.332C513.552 180.03 510.901 174.84 508.057 169.773L515.873 165.387ZM91.0881 215.652C92.7372 209.794 94.6112 204.03 96.7001 198.369L105.108 201.472C103.101 206.912 101.3 212.451 99.7149 218.081L91.0881 215.652ZM531.101 198.369C533.19 204.03 535.064 209.794 536.713 215.652L528.086 218.081C526.501 212.451 524.701 206.912 522.693 201.472L531.101 198.369ZM84.0357 251.285C84.7454 245.227 85.689 239.241 86.8574 233.335L95.6492 235.074C94.5263 240.75 93.6192 246.504 92.937 252.328L84.0357 251.285ZM540.944 233.335C542.112 239.241 543.056 245.227 543.766 251.285L534.864 252.328C534.182 246.504 533.275 240.75 532.152 235.074L540.944 233.335ZM82.4521 278.5C82.4521 275.454 82.511 272.421 82.6277 269.403L91.5832 269.749C91.4709 272.652 91.4143 275.569 91.4143 278.5C91.4143 281.431 91.4709 284.348 91.5832 287.251L82.6277 287.597C82.511 284.579 82.4521 281.546 82.4521 278.5ZM545.174 269.403C545.29 272.421 545.349 275.454 545.349 278.5C545.349 281.546 545.29 284.579 545.174 287.597L536.218 287.251C536.33 284.348 536.387 281.431 536.387 278.5C536.387 275.569 536.33 272.652 536.218 269.749L545.174 269.403ZM86.8574 323.665C85.689 317.759 84.7454 311.772 84.0357 305.715L92.937 304.672C93.6192 310.495 94.5263 316.25 95.6492 321.926L86.8574 323.665ZM543.766 305.715C543.056 311.773 542.112 317.759 540.944 323.665L532.152 321.926C533.275 316.25 534.182 310.495 534.864 304.672L543.766 305.715ZM96.7001 358.63C94.6112 352.97 92.7372 347.206 91.088 341.348L99.7149 338.919C101.3 344.549 103.101 350.088 105.108 355.528L96.7001 358.63ZM536.713 341.348C535.064 347.206 533.19 352.97 531.101 358.63L522.693 355.528C524.701 350.088 526.501 344.549 528.086 338.919L536.713 341.348ZM111.929 391.613C108.97 386.341 106.212 380.942 103.664 375.425L111.801 371.668C114.249 376.97 116.9 382.159 119.744 387.227L111.929 391.613ZM524.137 375.425C521.589 380.942 518.831 386.341 515.873 391.613L508.057 387.227C510.901 382.16 513.552 376.97 516 371.668L524.137 375.425ZM132.134 421.795C128.383 417.044 124.814 412.142 121.439 407.099L128.886 402.114C132.131 406.961 135.562 411.674 139.168 416.242L132.134 421.795ZM506.362 407.1C502.987 412.142 499.418 417.044 495.668 421.795L488.633 416.242C492.239 411.674 495.67 406.961 498.915 402.114L506.362 407.1ZM156.792 448.459C152.343 444.344 148.056 440.057 143.942 435.608L150.522 429.523C154.478 433.801 158.6 437.923 162.877 441.879L156.792 448.459ZM483.859 435.608C479.745 440.057 475.458 444.344 471.009 448.459L464.924 441.879C469.201 437.923 473.323 433.801 477.28 429.523L483.859 435.608ZM185.301 470.962C180.259 467.586 175.357 464.018 170.605 460.267L176.159 453.232C180.727 456.839 185.44 460.269 190.287 463.515L185.301 470.962ZM457.196 460.267C452.444 464.018 447.542 467.586 442.5 470.962L437.514 463.515C442.362 460.269 447.074 456.839 451.643 453.233L457.196 460.267ZM216.975 488.736C211.459 486.189 206.059 483.43 200.788 480.472L205.174 472.656C210.241 475.5 215.431 478.151 220.733 480.6L216.975 488.736ZM427.013 480.472C421.742 483.43 416.343 486.189 410.826 488.736L407.068 480.6C412.371 478.151 417.56 475.5 422.627 472.656L427.013 480.472ZM251.053 501.312C245.194 499.663 239.43 497.789 233.77 495.7L236.873 487.293C242.312 489.3 247.852 491.101 253.481 492.686L251.053 501.312ZM394.031 495.7C388.371 497.789 382.607 499.663 376.748 501.313L374.32 492.686C379.95 491.101 385.489 489.3 390.928 487.293L394.031 495.7ZM286.686 508.365C280.628 507.655 274.642 506.712 268.736 505.543L270.475 496.751C276.151 497.874 281.905 498.781 287.728 499.464L286.686 508.365ZM359.066 505.543C353.16 506.712 347.173 507.655 341.116 508.365L340.073 499.464C345.896 498.781 351.65 497.874 357.326 496.751L359.066 505.543ZM313.901 509.948C310.854 509.948 307.822 509.89 304.804 509.773L305.15 500.817C308.053 500.93 310.97 500.986 313.901 500.986C316.831 500.986 319.749 500.93 322.651 500.817L322.998 509.773C319.979 509.89 316.947 509.948 313.901 509.948Z" fill="#5FB9F0"/>
<rect x="227.64" y="0.448109" width="172.522" height="102.169" rx="10.7546" fill="#F17676"/>
<rect x="227.64" y="0.448109" width="172.522" height="102.169" rx="10.7546" stroke="black" stroke-width="0.896219"/>
<path d="M350.466 71.9126C349.563 71.9126 348.746 71.7621 348.014 71.4609C347.283 71.1455 346.659 70.7224 346.143 70.1919C345.627 69.647 345.225 69.0304 344.938 68.3421C344.666 67.6394 344.53 66.901 344.53 66.1266C344.53 65.0512 344.766 64.0689 345.24 63.1799C345.727 62.2908 346.415 61.581 347.304 61.0504C348.208 60.5055 349.269 60.2331 350.488 60.2331C351.721 60.2331 352.775 60.5055 353.65 61.0504C354.524 61.581 355.191 62.2908 355.65 63.1799C356.123 64.0546 356.36 65.001 356.36 66.0191C356.36 66.1912 356.353 66.3704 356.338 66.5568C356.324 66.7289 356.31 66.8723 356.295 66.987H347.584C347.641 67.5606 347.806 68.0625 348.079 68.4927C348.366 68.9228 348.724 69.2526 349.154 69.4821C349.599 69.6972 350.072 69.8047 350.574 69.8047C351.147 69.8047 351.685 69.6685 352.187 69.396C352.703 69.1092 353.055 68.7364 353.241 68.2776L355.715 68.9659C355.442 69.5394 355.048 70.0485 354.532 70.493C354.03 70.9375 353.435 71.2888 352.746 71.547C352.058 71.7907 351.298 71.9126 350.466 71.9126ZM347.52 65.1587H353.413C353.356 64.5851 353.191 64.0904 352.918 63.6746C352.66 63.2444 352.316 62.9146 351.886 62.6851C351.456 62.4414 350.975 62.3195 350.445 62.3195C349.929 62.3195 349.455 62.4414 349.025 62.6851C348.609 62.9146 348.265 63.2444 347.993 63.6746C347.735 64.0904 347.577 64.5851 347.52 65.1587Z" fill="#090808"/>
<path d="M338.017 71.9126C337.157 71.9126 336.389 71.719 335.715 71.3318C335.042 70.9447 334.511 70.4141 334.124 69.7401V71.6975H331.607V55.9957H334.489V62.4055C334.891 61.7315 335.414 61.201 336.06 60.8138C336.719 60.4266 337.486 60.2331 338.361 60.2331C339.092 60.2331 339.759 60.3908 340.361 60.7063C340.964 61.0074 341.48 61.4304 341.91 61.9753C342.355 62.5202 342.692 63.144 342.921 63.8466C343.165 64.5492 343.287 65.3021 343.287 66.1051C343.287 66.9081 343.151 67.6609 342.878 68.3635C342.62 69.0662 342.254 69.6899 341.781 70.2348C341.308 70.7654 340.749 71.1813 340.103 71.4824C339.472 71.7692 338.777 71.9126 338.017 71.9126ZM337.221 69.4605C337.68 69.4605 338.096 69.3745 338.469 69.2024C338.856 69.016 339.186 68.7722 339.458 68.4711C339.745 68.17 339.96 67.8186 340.103 67.4171C340.261 67.0013 340.34 66.5711 340.34 66.1266C340.34 65.51 340.211 64.9436 339.953 64.4274C339.709 63.8968 339.365 63.4738 338.92 63.1583C338.49 62.8428 337.981 62.6851 337.393 62.6851C336.977 62.6851 336.576 62.7855 336.189 62.9862C335.816 63.1726 335.479 63.4308 335.178 63.7606C334.891 64.0904 334.662 64.4632 334.489 64.879V67.5677C334.575 67.8545 334.712 68.1126 334.898 68.342C335.099 68.5715 335.328 68.7722 335.586 68.9443C335.845 69.102 336.11 69.2311 336.382 69.3315C336.669 69.4175 336.949 69.4605 337.221 69.4605Z" fill="#090808"/>
<path d="M318.203 67.4817V60.4267H321.086V66.858C321.086 67.7183 321.243 68.3708 321.559 68.8153C321.874 69.2455 322.34 69.4606 322.957 69.4606C323.33 69.4606 323.695 69.3889 324.054 69.2455C324.427 69.0878 324.764 68.8583 325.065 68.5572C325.38 68.2561 325.646 67.8761 325.861 67.4172V60.4267H328.743V68.4712C328.743 68.7723 328.793 68.9874 328.893 69.1164C329.008 69.2455 329.187 69.3244 329.431 69.353V71.6975C329.144 71.7406 328.901 71.7692 328.7 71.7836C328.513 71.8123 328.341 71.8266 328.184 71.8266C327.667 71.8266 327.244 71.7119 326.915 71.4825C326.599 71.2387 326.413 70.9089 326.355 70.493L326.291 69.5896C325.789 70.3496 325.144 70.9304 324.355 71.3319C323.566 71.7191 322.699 71.9126 321.752 71.9126C320.591 71.9126 319.709 71.5398 319.107 70.7942C318.505 70.0342 318.203 68.93 318.203 67.4817Z" fill="#090808"/>
<path d="M316.81 71.1167C316.566 71.2171 316.272 71.3318 315.928 71.4609C315.584 71.59 315.211 71.6903 314.809 71.762C314.422 71.8481 314.028 71.8911 313.626 71.8911C313.096 71.8911 312.608 71.7979 312.164 71.6115C311.719 71.425 311.361 71.1311 311.088 70.7296C310.83 70.3137 310.701 69.776 310.701 69.1164V62.6421H309.217V60.4266H310.701V56.7701H313.583V60.4266H315.949V62.6421H313.583V68.1485C313.598 68.5356 313.705 68.8153 313.906 68.9873C314.107 69.1594 314.358 69.2454 314.659 69.2454C314.96 69.2454 315.254 69.1953 315.541 69.0949C315.828 68.9945 316.057 68.9085 316.229 68.8368L316.81 71.1167Z" fill="#090808"/>
<path d="M296.694 67.4817V60.4267H299.576V66.858C299.576 67.7183 299.734 68.3708 300.05 68.8153C300.365 69.2455 300.831 69.4606 301.448 69.4606C301.821 69.4606 302.186 69.3889 302.545 69.2455C302.917 69.0878 303.254 68.8583 303.556 68.5572C303.871 68.2561 304.136 67.8761 304.351 67.4172V60.4267H307.234V68.4712C307.234 68.7723 307.284 68.9874 307.384 69.1164C307.499 69.2455 307.678 69.3244 307.922 69.353V71.6975C307.635 71.7406 307.391 71.7692 307.191 71.7836C307.004 71.8123 306.832 71.8266 306.674 71.8266C306.158 71.8266 305.735 71.7119 305.405 71.4825C305.09 71.2387 304.904 70.9089 304.846 70.493L304.782 69.5896C304.28 70.3496 303.634 70.9304 302.846 71.3319C302.057 71.7191 301.19 71.9126 300.243 71.9126C299.082 71.9126 298.2 71.5398 297.598 70.7942C296.995 70.0342 296.694 68.93 296.694 67.4817Z" fill="#090808"/>
<path d="M288.963 71.9126C288.045 71.9126 287.221 71.7621 286.489 71.4609C285.758 71.1455 285.134 70.7153 284.618 70.1704C284.116 69.6255 283.729 69.0017 283.456 68.2991C283.184 67.5964 283.048 66.8579 283.048 66.0836C283.048 65.2949 283.184 64.5493 283.456 63.8466C283.729 63.144 284.116 62.5202 284.618 61.9753C285.134 61.4304 285.758 61.0074 286.489 60.7063C287.221 60.3908 288.045 60.2331 288.963 60.2331C289.88 60.2331 290.698 60.3908 291.415 60.7063C292.146 61.0074 292.77 61.4304 293.286 61.9753C293.802 62.5202 294.19 63.144 294.448 63.8466C294.72 64.5493 294.856 65.2949 294.856 66.0836C294.856 66.8579 294.72 67.5964 294.448 68.2991C294.19 69.0017 293.802 69.6255 293.286 70.1704C292.784 70.7153 292.168 71.1455 291.436 71.4609C290.705 71.7621 289.88 71.9126 288.963 71.9126ZM286.016 66.0836C286.016 66.7432 286.145 67.3311 286.403 67.8474C286.661 68.3493 287.013 68.7436 287.457 69.0304C287.902 69.3172 288.404 69.4606 288.963 69.4606C289.508 69.4606 290.002 69.3172 290.447 69.0304C290.891 68.7292 291.243 68.3277 291.501 67.8259C291.773 67.3096 291.91 66.7217 291.91 66.0621C291.91 65.4168 291.773 64.8361 291.501 64.3198C291.243 63.8036 290.891 63.4021 290.447 63.1153C290.002 62.8285 289.508 62.6851 288.963 62.6851C288.404 62.6851 287.902 62.8357 287.457 63.1368C287.013 63.4236 286.661 63.8251 286.403 64.3414C286.145 64.8432 286.016 65.424 286.016 66.0836Z" fill="#090808"/>
<path d="M272.546 73.8915C272.804 73.9488 273.041 73.999 273.256 74.0421C273.486 74.0851 273.679 74.1066 273.837 74.1066C274.109 74.1066 274.332 74.0349 274.504 73.8915C274.69 73.7624 274.869 73.5187 275.041 73.1602C275.213 72.816 275.393 72.3285 275.579 71.6975L271.127 60.4267H274.117L277.149 68.7508L279.816 60.4267H282.57L277.838 73.9345C277.666 74.4364 277.4 74.8881 277.042 75.2896C276.698 75.7054 276.26 76.0281 275.73 76.2575C275.213 76.5013 274.633 76.6232 273.987 76.6232C273.758 76.6232 273.529 76.6017 273.299 76.5586C273.07 76.53 272.819 76.4726 272.546 76.3866V73.8915Z" fill="#090808"/>
<path d="M382.289 46.8184C381.371 46.8184 380.546 46.6679 379.815 46.3667C379.084 46.0513 378.46 45.6211 377.944 45.0762C377.442 44.5313 377.055 43.9075 376.782 43.2049C376.51 42.5022 376.374 41.7638 376.374 40.9894C376.374 40.2008 376.51 39.4551 376.782 38.7525C377.055 38.0498 377.442 37.4261 377.944 36.8812C378.46 36.3363 379.084 35.9132 379.815 35.6121C380.546 35.2967 381.371 35.1389 382.289 35.1389C383.206 35.1389 384.024 35.2967 384.741 35.6121C385.472 35.9132 386.096 36.3363 386.612 36.8812C387.128 37.4261 387.515 38.0498 387.773 38.7525C388.046 39.4551 388.182 40.2008 388.182 40.9894C388.182 41.7638 388.046 42.5022 387.773 43.2049C387.515 43.9075 387.128 44.5313 386.612 45.0762C386.11 45.6211 385.493 46.0513 384.762 46.3667C384.031 46.6679 383.206 46.8184 382.289 46.8184ZM379.342 40.9894C379.342 41.649 379.471 42.237 379.729 42.7532C379.987 43.2551 380.338 43.6494 380.783 43.9362C381.227 44.223 381.729 44.3664 382.289 44.3664C382.833 44.3664 383.328 44.223 383.773 43.9362C384.217 43.6351 384.569 43.2336 384.827 42.7317C385.099 42.2155 385.235 41.6275 385.235 40.9679C385.235 40.3226 385.099 39.7419 384.827 39.2257C384.569 38.7094 384.217 38.3079 383.773 38.0212C383.328 37.7344 382.833 37.591 382.289 37.591C381.729 37.591 381.227 37.7415 380.783 38.0427C380.338 38.3295 379.987 38.731 379.729 39.2472C379.471 39.7491 379.342 40.3298 379.342 40.9894Z" fill="#090808"/>
<path d="M375.708 46.0226C375.464 46.123 375.17 46.2377 374.826 46.3668C374.482 46.4958 374.109 46.5962 373.708 46.6679C373.321 46.7539 372.926 46.797 372.525 46.797C371.994 46.797 371.507 46.7038 371.062 46.5173C370.618 46.3309 370.259 46.037 369.987 45.6355C369.729 45.2196 369.6 44.6819 369.6 44.0223V37.548H368.115V35.3325H369.6V31.676H372.482V35.3325H374.848V37.548H372.482V43.0544C372.496 43.4415 372.604 43.7211 372.804 43.8932C373.005 44.0653 373.256 44.1513 373.557 44.1513C373.858 44.1513 374.152 44.1011 374.439 44.0008C374.726 43.9004 374.955 43.8143 375.127 43.7427L375.708 46.0226Z" fill="#090808"/>
<path d="M355.593 42.3876V35.3325H358.475V41.7638C358.475 42.6242 358.633 43.2766 358.948 43.7211C359.263 44.1513 359.729 44.3664 360.346 44.3664C360.719 44.3664 361.085 44.2947 361.443 44.1513C361.816 43.9936 362.153 43.7641 362.454 43.463C362.769 43.1619 363.035 42.7819 363.25 42.323V35.3325H366.132V43.377C366.132 43.6781 366.182 43.8932 366.283 44.0223C366.397 44.1513 366.577 44.2302 366.82 44.2589V46.6034C366.534 46.6464 366.29 46.6751 366.089 46.6894C365.903 46.7181 365.731 46.7324 365.573 46.7324C365.057 46.7324 364.634 46.6177 364.304 46.3883C363.988 46.1445 363.802 45.8147 363.745 45.3988L363.68 44.4955C363.178 45.2555 362.533 45.8362 361.744 46.2377C360.956 46.6249 360.088 46.8185 359.142 46.8185C357.98 46.8185 357.098 46.4456 356.496 45.7C355.894 44.94 355.593 43.8358 355.593 42.3876Z" fill="#090808"/>
<path d="M354.199 46.0226C353.955 46.123 353.661 46.2377 353.317 46.3668C352.973 46.4958 352.6 46.5962 352.199 46.6679C351.811 46.7539 351.417 46.797 351.016 46.797C350.485 46.797 349.997 46.7038 349.553 46.5173C349.108 46.3309 348.75 46.037 348.477 45.6355C348.219 45.2196 348.09 44.6819 348.09 44.0223V37.548H346.606V35.3325H348.09V31.676H350.973V35.3325H353.339V37.548H350.973V43.0544C350.987 43.4415 351.094 43.7211 351.295 43.8932C351.496 44.0653 351.747 44.1513 352.048 44.1513C352.349 44.1513 352.643 44.1011 352.93 44.0008C353.217 43.9004 353.446 43.8143 353.618 43.7427L354.199 46.0226Z" fill="#090808"/>
<path d="M339.772 46.6033H336.889V40.2796C336.889 39.3762 336.732 38.7166 336.416 38.3008C336.101 37.8849 335.663 37.677 335.104 37.677C334.717 37.677 334.323 37.7774 333.921 37.9781C333.534 38.1789 333.183 38.4585 332.867 38.817C332.552 39.1611 332.322 39.5627 332.179 40.0215V46.6033H329.297V35.3325H331.899V37.4189C332.186 36.9314 332.552 36.5227 332.996 36.1929C333.441 35.8487 333.95 35.5906 334.523 35.4185C335.111 35.2321 335.728 35.1389 336.373 35.1389C337.076 35.1389 337.649 35.268 338.094 35.5261C338.553 35.7699 338.897 36.1068 339.126 36.537C339.37 36.9529 339.535 37.4261 339.621 37.9566C339.721 38.4872 339.772 39.0249 339.772 39.5698V46.6033Z" fill="#090808"/>
<path d="M315.893 42.3876V35.3325H318.775V41.7638C318.775 42.6242 318.933 43.2766 319.248 43.7211C319.564 44.1513 320.03 44.3664 320.646 44.3664C321.019 44.3664 321.385 44.2947 321.743 44.1513C322.116 43.9936 322.453 43.7641 322.754 43.463C323.07 43.1619 323.335 42.7819 323.55 42.323V35.3325H326.432V43.377C326.432 43.6781 326.483 43.8932 326.583 44.0223C326.698 44.1513 326.877 44.2302 327.121 44.2589V46.6034C326.834 46.6464 326.59 46.6751 326.389 46.6894C326.203 46.7181 326.031 46.7324 325.873 46.7324C325.357 46.7324 324.934 46.6177 324.604 46.3883C324.289 46.1445 324.102 45.8147 324.045 45.3988L323.98 44.4955C323.478 45.2555 322.833 45.8362 322.044 46.2377C321.256 46.6249 320.388 46.8185 319.442 46.8185C318.28 46.8185 317.398 46.4456 316.796 45.7C316.194 44.94 315.893 43.8358 315.893 42.3876Z" fill="#090808"/>
<path d="M304.356 46.8185C303.395 46.8185 302.477 46.6608 301.603 46.3453C300.728 46.0299 299.975 45.5638 299.344 44.9472L300.377 43.0759C301.051 43.6208 301.71 44.0223 302.355 44.2804C303.015 44.5385 303.646 44.6676 304.248 44.6676C304.808 44.6676 305.252 44.5672 305.582 44.3665C305.926 44.1657 306.098 43.8646 306.098 43.4631C306.098 43.1906 306.005 42.9827 305.818 42.8393C305.632 42.6816 305.36 42.5454 305.001 42.4306C304.657 42.3159 304.234 42.1869 303.732 42.0435C302.9 41.771 302.205 41.5057 301.646 41.2476C301.086 40.9895 300.663 40.6669 300.377 40.2797C300.104 39.8782 299.968 39.3692 299.968 38.7526C299.968 38.0069 300.154 37.3688 300.527 36.8382C300.914 36.2933 301.445 35.8703 302.119 35.5692C302.807 35.2681 303.61 35.1175 304.528 35.1175C305.331 35.1175 306.091 35.2465 306.808 35.5047C307.525 35.7484 308.177 36.1499 308.765 36.7092L307.604 38.5375C307.03 38.0929 306.485 37.7703 305.969 37.5695C305.453 37.3545 304.929 37.2469 304.399 37.2469C304.098 37.2469 303.811 37.2828 303.538 37.3545C303.28 37.4262 303.065 37.548 302.893 37.7201C302.735 37.8778 302.657 38.1073 302.657 38.4084C302.657 38.6809 302.728 38.896 302.872 39.0537C303.029 39.1971 303.259 39.3261 303.56 39.4409C303.875 39.5556 304.255 39.6846 304.7 39.828C305.603 40.0861 306.363 40.3514 306.98 40.6239C307.611 40.8963 308.084 41.2333 308.4 41.6348C308.715 42.022 308.873 42.5597 308.873 43.248C308.873 44.3665 308.464 45.2412 307.647 45.8721C306.829 46.5031 305.732 46.8185 304.356 46.8185Z" fill="#090808"/>
<path d="M294.722 46.6034V35.3326H297.604V46.6034H294.722ZM294.722 33.7624V30.9017H297.604V33.7624H294.722Z" fill="#090808"/>
<path d="M281.318 42.3876V35.3325H284.201V41.7638C284.201 42.6242 284.358 43.2766 284.674 43.7211C284.989 44.1513 285.455 44.3664 286.072 44.3664C286.445 44.3664 286.81 44.2947 287.169 44.1513C287.542 43.9936 287.879 43.7641 288.18 43.463C288.495 43.1619 288.761 42.7819 288.976 42.323V35.3325H291.858V43.377C291.858 43.6781 291.908 43.8932 292.009 44.0223C292.123 44.1513 292.302 44.2302 292.546 44.2589V46.6034C292.259 46.6464 292.016 46.6751 291.815 46.6894C291.629 46.7181 291.456 46.7324 291.299 46.7324C290.782 46.7324 290.359 46.6177 290.03 46.3883C289.714 46.1445 289.528 45.8147 289.47 45.3988L289.406 44.4955C288.904 45.2555 288.259 45.8362 287.47 46.2377C286.681 46.6249 285.814 46.8185 284.867 46.8185C283.706 46.8185 282.824 46.4456 282.222 45.7C281.62 44.94 281.318 43.8358 281.318 42.3876Z" fill="#090808"/>
<path d="M274.949 46.8185C273.988 46.8185 273.07 46.6608 272.195 46.3453C271.321 46.0299 270.568 45.5638 269.937 44.9472L270.969 43.0759C271.643 43.6208 272.303 44.0223 272.948 44.2804C273.608 44.5385 274.239 44.6676 274.841 44.6676C275.4 44.6676 275.845 44.5672 276.175 44.3665C276.519 44.1657 276.691 43.8646 276.691 43.4631C276.691 43.1906 276.598 42.9827 276.411 42.8393C276.225 42.6816 275.952 42.5454 275.594 42.4306C275.25 42.3159 274.827 42.1869 274.325 42.0435C273.493 41.771 272.798 41.5057 272.238 41.2476C271.679 40.9895 271.256 40.6669 270.969 40.2797C270.697 39.8782 270.561 39.3692 270.561 38.7526C270.561 38.0069 270.747 37.3688 271.12 36.8382C271.507 36.2933 272.038 35.8703 272.712 35.5692C273.4 35.2681 274.203 35.1175 275.121 35.1175C275.924 35.1175 276.684 35.2465 277.401 35.5047C278.118 35.7484 278.77 36.1499 279.358 36.7092L278.197 38.5375C277.623 38.0929 277.078 37.7703 276.562 37.5695C276.046 37.3545 275.522 37.2469 274.992 37.2469C274.691 37.2469 274.404 37.2828 274.131 37.3545C273.873 37.4262 273.658 37.548 273.486 37.7201C273.328 37.8778 273.249 38.1073 273.249 38.4084C273.249 38.6809 273.321 38.896 273.465 39.0537C273.622 39.1971 273.852 39.3261 274.153 39.4409C274.468 39.5556 274.848 39.6846 275.293 39.828C276.196 40.0861 276.956 40.3514 277.573 40.6239C278.204 40.8963 278.677 41.2333 278.992 41.6348C279.308 42.022 279.466 42.5597 279.466 43.248C279.466 44.3665 279.057 45.2412 278.24 45.8721C277.422 46.5031 276.325 46.8185 274.949 46.8185Z" fill="#090808"/>
<path d="M252.226 42.3876V35.3325H255.109V41.7638C255.109 42.6242 255.266 43.2766 255.582 43.7211C255.897 44.1513 256.363 44.3664 256.98 44.3664C257.353 44.3664 257.718 44.2947 258.077 44.1513C258.45 43.9936 258.787 43.7641 259.088 43.463C259.403 43.1619 259.669 42.7819 259.884 42.323V35.3325H262.766V43.377C262.766 43.6781 262.816 43.8932 262.916 44.0223C263.031 44.1513 263.21 44.2302 263.454 44.2589V46.6034C263.167 46.6464 262.924 46.6751 262.723 46.6894C262.536 46.7181 262.364 46.7324 262.207 46.7324C261.69 46.7324 261.267 46.6177 260.938 46.3883C260.622 46.1445 260.436 45.8147 260.378 45.3988L260.314 44.4955C259.812 45.2555 259.167 45.8362 258.378 46.2377C257.589 46.6249 256.722 46.8185 255.775 46.8185C254.614 46.8185 253.732 46.4456 253.13 45.7C252.527 44.94 252.226 43.8358 252.226 42.3876Z" fill="#090808"/>
<path d="M251.999 33.9345H247.116V46.6034H244.17V33.9345H239.287V31.3318H251.999V33.9345Z" fill="#090808"/>
<rect x="454.383" y="213.748" width="172.522" height="102.169" rx="10.7546" fill="#F1D676"/>
<rect x="454.383" y="213.748" width="172.522" height="102.169" rx="10.7546" stroke="black" stroke-width="0.896219"/>
<path d="M573.576 297.76C572.672 297.76 571.855 297.609 571.124 297.308C570.392 296.993 569.769 296.57 569.252 296.039C568.736 295.494 568.335 294.877 568.048 294.189C567.775 293.487 567.639 292.748 567.639 291.974C567.639 290.898 567.876 289.916 568.349 289.027C568.837 288.138 569.525 287.428 570.414 286.898C571.317 286.353 572.378 286.08 573.597 286.08C574.83 286.08 575.884 286.353 576.759 286.898C577.634 287.428 578.301 288.138 578.759 289.027C579.233 289.902 579.469 290.848 579.469 291.866C579.469 292.038 579.462 292.218 579.448 292.404C579.433 292.576 579.419 292.719 579.405 292.834H570.693C570.751 293.408 570.916 293.91 571.188 294.34C571.475 294.77 571.833 295.1 572.264 295.329C572.708 295.544 573.181 295.652 573.683 295.652C574.257 295.652 574.795 295.516 575.296 295.243C575.813 294.956 576.164 294.584 576.35 294.125L578.824 294.813C578.552 295.387 578.157 295.896 577.641 296.34C577.139 296.785 576.544 297.136 575.856 297.394C575.167 297.638 574.407 297.76 573.576 297.76ZM570.629 291.006H576.522C576.465 290.432 576.3 289.938 576.028 289.522C575.77 289.091 575.426 288.762 574.995 288.532C574.565 288.288 574.085 288.167 573.554 288.167C573.038 288.167 572.565 288.288 572.135 288.532C571.719 288.762 571.375 289.091 571.102 289.522C570.844 289.938 570.686 290.432 570.629 291.006Z" fill="#090808"/>
<path d="M565.843 297.545H562.961V291.221C562.961 290.346 562.788 289.694 562.444 289.264C562.115 288.833 561.656 288.618 561.068 288.618C560.724 288.618 560.358 288.719 559.971 288.919C559.584 289.12 559.232 289.4 558.917 289.758C558.616 290.102 558.393 290.504 558.25 290.963V297.545H555.368V281.843H558.25V288.36C558.666 287.643 559.232 287.084 559.949 286.682C560.666 286.281 561.448 286.08 562.294 286.08C563.025 286.08 563.62 286.209 564.079 286.467C564.538 286.711 564.896 287.048 565.155 287.478C565.413 287.894 565.592 288.367 565.692 288.898C565.793 289.414 565.843 289.952 565.843 290.511V297.545Z" fill="#090808"/>
<path d="M548.475 297.76C547.557 297.76 546.733 297.609 546.002 297.308C545.27 296.993 544.646 296.562 544.13 296.017C543.614 295.458 543.212 294.827 542.926 294.125C542.653 293.422 542.517 292.684 542.517 291.909C542.517 290.848 542.754 289.88 543.227 289.005C543.714 288.116 544.403 287.407 545.292 286.876C546.181 286.345 547.235 286.08 548.454 286.08C549.672 286.08 550.719 286.345 551.594 286.876C552.469 287.407 553.121 288.102 553.551 288.962L550.734 289.823C550.49 289.407 550.167 289.091 549.766 288.876C549.364 288.647 548.92 288.532 548.432 288.532C547.887 288.532 547.385 288.676 546.926 288.962C546.482 289.235 546.131 289.629 545.872 290.145C545.614 290.647 545.485 291.235 545.485 291.909C545.485 292.569 545.614 293.157 545.872 293.673C546.145 294.175 546.503 294.576 546.948 294.877C547.392 295.164 547.887 295.308 548.432 295.308C548.776 295.308 549.099 295.25 549.4 295.136C549.715 295.021 549.995 294.863 550.239 294.662C550.483 294.462 550.662 294.232 550.777 293.974L553.594 294.834C553.336 295.394 552.956 295.896 552.454 296.34C551.967 296.785 551.386 297.136 550.712 297.394C550.052 297.638 549.307 297.76 548.475 297.76Z" fill="#090808"/>
<path d="M541.767 288.769C540.892 288.769 540.111 288.941 539.422 289.285C538.734 289.615 538.239 290.095 537.938 290.726V297.545H535.056V286.274H537.701V288.683C538.103 287.909 538.612 287.299 539.229 286.855C539.845 286.41 540.498 286.166 541.186 286.123C541.344 286.123 541.466 286.123 541.552 286.123C541.638 286.123 541.709 286.13 541.767 286.145V288.769Z" fill="#090808"/>
<path d="M521.931 294.211C521.931 293.479 522.131 292.841 522.533 292.296C522.949 291.737 523.522 291.307 524.254 291.006C524.985 290.705 525.824 290.554 526.77 290.554C527.243 290.554 527.724 290.59 528.211 290.662C528.699 290.733 529.122 290.848 529.48 291.006V290.404C529.48 289.687 529.265 289.135 528.835 288.747C528.419 288.36 527.795 288.167 526.964 288.167C526.347 288.167 525.759 288.274 525.2 288.489C524.641 288.704 524.053 289.02 523.436 289.436L522.511 287.543C523.257 287.055 524.017 286.69 524.791 286.446C525.58 286.202 526.404 286.08 527.265 286.08C528.871 286.08 530.118 286.482 531.007 287.285C531.911 288.088 532.362 289.235 532.362 290.726V294.318C532.362 294.619 532.413 294.834 532.513 294.964C532.628 295.093 532.807 295.171 533.051 295.2V297.545C532.793 297.588 532.556 297.624 532.341 297.652C532.14 297.681 531.968 297.695 531.825 297.695C531.251 297.695 530.814 297.566 530.513 297.308C530.226 297.05 530.047 296.734 529.975 296.362L529.91 295.781C529.423 296.412 528.813 296.899 528.082 297.244C527.351 297.588 526.605 297.76 525.845 297.76C525.1 297.76 524.426 297.609 523.823 297.308C523.235 296.993 522.769 296.57 522.425 296.039C522.095 295.494 521.931 294.885 521.931 294.211ZM528.943 294.791C529.1 294.619 529.229 294.447 529.33 294.275C529.43 294.103 529.48 293.945 529.48 293.802V292.662C529.136 292.519 528.763 292.411 528.362 292.339C527.96 292.253 527.58 292.21 527.222 292.21C526.476 292.21 525.86 292.375 525.372 292.705C524.899 293.021 524.662 293.444 524.662 293.974C524.662 294.261 524.741 294.533 524.899 294.791C525.057 295.05 525.286 295.257 525.587 295.415C525.888 295.573 526.247 295.652 526.663 295.652C527.093 295.652 527.516 295.573 527.932 295.415C528.347 295.243 528.684 295.035 528.943 294.791Z" fill="#090808"/>
<path d="M520.195 297.545H517.313V291.221C517.313 290.332 517.156 289.679 516.84 289.264C516.539 288.833 516.116 288.618 515.571 288.618C515.012 288.618 514.474 288.841 513.958 289.285C513.456 289.715 513.097 290.282 512.882 290.984V297.545H510V291.221C510 290.318 509.842 289.658 509.527 289.242C509.226 288.826 508.803 288.618 508.258 288.618C507.699 288.618 507.161 288.833 506.645 289.264C506.143 289.694 505.784 290.26 505.569 290.963V297.545H502.687V286.274H505.29V288.36C505.72 287.629 506.293 287.07 507.01 286.682C507.727 286.281 508.552 286.08 509.484 286.08C510.416 286.08 511.14 286.31 511.656 286.768C512.187 287.227 512.524 287.794 512.667 288.468C513.126 287.693 513.707 287.105 514.409 286.704C515.126 286.288 515.929 286.08 516.819 286.08C517.521 286.08 518.088 286.209 518.518 286.467C518.962 286.711 519.306 287.048 519.55 287.478C519.794 287.894 519.959 288.367 520.045 288.898C520.145 289.428 520.195 289.966 520.195 290.511V297.545Z" fill="#090808"/>
<path d="M576.901 269.117C576.901 268.385 577.102 267.747 577.503 267.202C577.919 266.643 578.493 266.213 579.224 265.912C579.955 265.611 580.794 265.46 581.74 265.46C582.214 265.46 582.694 265.496 583.182 265.568C583.669 265.639 584.092 265.754 584.451 265.912V265.309C584.451 264.592 584.236 264.04 583.805 263.653C583.39 263.266 582.766 263.072 581.934 263.072C581.317 263.072 580.73 263.18 580.17 263.395C579.611 263.61 579.023 263.926 578.407 264.342L577.482 262.449C578.227 261.961 578.987 261.596 579.762 261.352C580.55 261.108 581.375 260.986 582.235 260.986C583.841 260.986 585.089 261.388 585.978 262.191C586.881 262.994 587.333 264.141 587.333 265.632V269.224C587.333 269.525 587.383 269.74 587.483 269.869C587.598 269.998 587.777 270.077 588.021 270.106V272.451C587.763 272.494 587.526 272.529 587.311 272.558C587.111 272.587 586.939 272.601 586.795 272.601C586.222 272.601 585.784 272.472 585.483 272.214C585.196 271.956 585.017 271.64 584.945 271.268L584.881 270.687C584.393 271.318 583.784 271.805 583.053 272.149C582.321 272.494 581.576 272.666 580.816 272.666C580.07 272.666 579.396 272.515 578.794 272.214C578.206 271.898 577.74 271.475 577.396 270.945C577.066 270.4 576.901 269.791 576.901 269.117ZM583.913 269.697C584.071 269.525 584.2 269.353 584.3 269.181C584.4 269.009 584.451 268.851 584.451 268.708V267.568C584.107 267.425 583.734 267.317 583.332 267.245C582.931 267.159 582.551 267.116 582.192 267.116C581.447 267.116 580.83 267.281 580.342 267.611C579.869 267.926 579.633 268.349 579.633 268.88C579.633 269.167 579.711 269.439 579.869 269.697C580.027 269.955 580.256 270.163 580.557 270.321C580.859 270.479 581.217 270.558 581.633 270.558C582.063 270.558 582.486 270.479 582.902 270.321C583.318 270.149 583.655 269.941 583.913 269.697Z" fill="#090808"/>
<path d="M570.783 272.666C569.865 272.666 569.04 272.515 568.309 272.214C567.578 271.898 566.954 271.468 566.438 270.923C565.921 270.364 565.52 269.733 565.233 269.031C564.961 268.328 564.824 267.589 564.824 266.815C564.824 265.754 565.061 264.786 565.534 263.911C566.022 263.022 566.71 262.312 567.599 261.782C568.488 261.251 569.542 260.986 570.761 260.986C571.98 260.986 573.027 261.251 573.901 261.782C574.776 262.312 575.429 263.008 575.859 263.868L573.041 264.729C572.797 264.313 572.475 263.997 572.073 263.782C571.672 263.553 571.227 263.438 570.74 263.438C570.195 263.438 569.693 263.582 569.234 263.868C568.789 264.141 568.438 264.535 568.18 265.051C567.922 265.553 567.793 266.141 567.793 266.815C567.793 267.475 567.922 268.063 568.18 268.579C568.452 269.081 568.811 269.482 569.255 269.783C569.7 270.07 570.195 270.214 570.74 270.214C571.084 270.214 571.406 270.156 571.707 270.041C572.023 269.927 572.303 269.769 572.546 269.568C572.79 269.368 572.969 269.138 573.084 268.88L575.902 269.74C575.644 270.3 575.264 270.801 574.762 271.246C574.274 271.691 573.693 272.042 573.02 272.3C572.36 272.544 571.614 272.666 570.783 272.666ZM570.481 276.774C570.094 276.774 569.678 276.717 569.234 276.602C568.789 276.501 568.345 276.344 567.9 276.129L568.632 274.601C568.847 274.745 569.062 274.852 569.277 274.924C569.506 275.01 569.743 275.053 569.987 275.053C570.36 275.053 570.646 274.967 570.847 274.795C571.062 274.637 571.17 274.401 571.17 274.085C571.17 273.784 571.062 273.497 570.847 273.225C570.646 272.967 570.352 272.709 569.965 272.451L570.933 271.827C571.507 272.2 571.98 272.601 572.353 273.031C572.726 273.476 572.912 274.014 572.912 274.644C572.912 275.247 572.704 275.749 572.288 276.15C571.887 276.566 571.284 276.774 570.481 276.774Z" fill="#090808"/>
<path d="M555.626 274.924L556.207 272.364H555.303V269.353H557.798V272.364L556.916 274.924H555.626Z" fill="#090808"/>
<path d="M553.867 271.87C553.623 271.97 553.329 272.085 552.985 272.214C552.641 272.343 552.268 272.443 551.866 272.515C551.479 272.601 551.085 272.644 550.683 272.644C550.153 272.644 549.665 272.551 549.221 272.364C548.776 272.178 548.418 271.884 548.145 271.483C547.887 271.067 547.758 270.529 547.758 269.869V263.395H546.274V261.18H547.758V257.523H550.64V261.18H553.006V263.395H550.64V268.901C550.655 269.289 550.762 269.568 550.963 269.74C551.164 269.912 551.415 269.998 551.716 269.998C552.017 269.998 552.311 269.948 552.598 269.848C552.884 269.747 553.114 269.661 553.286 269.59L553.867 271.87Z" fill="#090808"/>
<path d="M539.568 272.666C538.665 272.666 537.848 272.515 537.116 272.214C536.385 271.898 535.761 271.475 535.245 270.945C534.729 270.4 534.327 269.783 534.041 269.095C533.768 268.392 533.632 267.654 533.632 266.88C533.632 265.804 533.868 264.822 534.342 263.933C534.829 263.044 535.518 262.334 536.407 261.803C537.31 261.259 538.371 260.986 539.59 260.986C540.823 260.986 541.877 261.259 542.752 261.803C543.627 262.334 544.293 263.044 544.752 263.933C545.225 264.808 545.462 265.754 545.462 266.772C545.462 266.944 545.455 267.123 545.44 267.31C545.426 267.482 545.412 267.625 545.397 267.74H536.686C536.744 268.314 536.908 268.815 537.181 269.246C537.468 269.676 537.826 270.006 538.256 270.235C538.701 270.45 539.174 270.558 539.676 270.558C540.25 270.558 540.787 270.421 541.289 270.149C541.805 269.862 542.157 269.489 542.343 269.031L544.817 269.719C544.544 270.292 544.15 270.801 543.634 271.246C543.132 271.691 542.537 272.042 541.848 272.3C541.16 272.544 540.4 272.666 539.568 272.666ZM536.622 265.912H542.515C542.458 265.338 542.293 264.843 542.02 264.428C541.762 263.997 541.418 263.668 540.988 263.438C540.558 263.194 540.077 263.072 539.547 263.072C539.031 263.072 538.557 263.194 538.127 263.438C537.711 263.668 537.367 263.997 537.095 264.428C536.837 264.843 536.679 265.338 536.622 265.912Z" fill="#090808"/>
<path d="M527.808 276.666C527.278 276.666 526.769 276.58 526.281 276.408C525.794 276.251 525.349 276 524.948 275.655L526.195 273.698C526.353 273.87 526.546 273.992 526.776 274.064C527.005 274.135 527.235 274.171 527.464 274.171C527.722 274.171 527.952 274.107 528.153 273.978C528.368 273.863 528.533 273.698 528.647 273.483C528.776 273.268 528.841 273.024 528.841 272.752V261.18H531.723V272.537C531.723 273.34 531.544 274.057 531.185 274.687C530.841 275.318 530.375 275.806 529.787 276.15C529.214 276.494 528.554 276.666 527.808 276.666ZM528.841 259.61V256.749H531.723V259.61H528.841Z" fill="#090808"/>
<path d="M520.894 272.666C519.977 272.666 519.152 272.515 518.421 272.214C517.689 271.898 517.066 271.468 516.549 270.923C516.048 270.378 515.66 269.755 515.388 269.052C515.116 268.349 514.979 267.611 514.979 266.837C514.979 266.048 515.116 265.302 515.388 264.6C515.66 263.897 516.048 263.273 516.549 262.728C517.066 262.183 517.689 261.76 518.421 261.459C519.152 261.144 519.977 260.986 520.894 260.986C521.812 260.986 522.629 261.144 523.346 261.459C524.078 261.76 524.701 262.183 525.218 262.728C525.734 263.273 526.121 263.897 526.379 264.6C526.652 265.302 526.788 266.048 526.788 266.837C526.788 267.611 526.652 268.349 526.379 269.052C526.121 269.755 525.734 270.378 525.218 270.923C524.716 271.468 524.099 271.898 523.368 272.214C522.637 272.515 521.812 272.666 520.894 272.666ZM517.948 266.837C517.948 267.496 518.077 268.084 518.335 268.6C518.593 269.102 518.944 269.497 519.389 269.783C519.833 270.07 520.335 270.214 520.894 270.214C521.439 270.214 521.934 270.07 522.378 269.783C522.823 269.482 523.174 269.081 523.432 268.579C523.705 268.063 523.841 267.475 523.841 266.815C523.841 266.17 523.705 265.589 523.432 265.073C523.174 264.557 522.823 264.155 522.378 263.868C521.934 263.582 521.439 263.438 520.894 263.438C520.335 263.438 519.833 263.589 519.389 263.89C518.944 264.177 518.593 264.578 518.335 265.094C518.077 265.596 517.948 266.177 517.948 266.837Z" fill="#090808"/>
<path d="M514.229 263.675C513.354 263.675 512.573 263.847 511.884 264.191C511.196 264.521 510.701 265.001 510.4 265.632V272.451H507.518V261.18H510.164V263.589C510.565 262.814 511.074 262.205 511.691 261.76C512.307 261.316 512.96 261.072 513.648 261.029C513.806 261.029 513.928 261.029 514.014 261.029C514.1 261.029 514.172 261.036 514.229 261.051V263.675Z" fill="#090808"/>
<path d="M500.64 272.666C499.765 272.666 498.991 272.472 498.317 272.085C497.657 271.683 497.141 271.146 496.768 270.472V277.032H493.886V261.18H496.402V263.115C496.833 262.456 497.377 261.94 498.037 261.567C498.697 261.18 499.449 260.986 500.296 260.986C501.056 260.986 501.751 261.137 502.382 261.438C503.027 261.739 503.586 262.162 504.06 262.707C504.533 263.237 504.899 263.854 505.157 264.557C505.429 265.245 505.565 265.991 505.565 266.794C505.565 267.883 505.35 268.873 504.92 269.762C504.504 270.651 503.923 271.361 503.178 271.891C502.446 272.407 501.6 272.666 500.64 272.666ZM499.672 270.214C500.116 270.214 500.518 270.12 500.876 269.934C501.235 269.748 501.543 269.497 501.801 269.181C502.074 268.851 502.274 268.486 502.403 268.084C502.547 267.668 502.619 267.238 502.619 266.794C502.619 266.32 502.54 265.883 502.382 265.482C502.239 265.08 502.023 264.729 501.737 264.428C501.45 264.112 501.113 263.868 500.726 263.696C500.353 263.524 499.944 263.438 499.5 263.438C499.227 263.438 498.948 263.488 498.661 263.589C498.388 263.675 498.123 263.804 497.865 263.976C497.607 264.148 497.377 264.349 497.177 264.578C496.99 264.808 496.854 265.059 496.768 265.331V267.977C496.94 268.392 497.17 268.772 497.456 269.117C497.757 269.461 498.102 269.733 498.489 269.934C498.876 270.12 499.27 270.214 499.672 270.214Z" fill="#090808"/>
<path d="M590.527 247.571C589.623 247.571 588.806 247.421 588.075 247.12C587.343 246.804 586.72 246.381 586.203 245.851C585.687 245.306 585.286 244.689 584.999 244.001C584.727 243.298 584.59 242.56 584.59 241.786C584.59 240.71 584.827 239.728 585.3 238.839C585.788 237.95 586.476 237.24 587.365 236.709C588.268 236.164 589.33 235.892 590.548 235.892C591.782 235.892 592.836 236.164 593.71 236.709C594.585 237.24 595.252 237.95 595.711 238.839C596.184 239.713 596.42 240.66 596.42 241.678C596.42 241.85 596.413 242.029 596.399 242.216C596.385 242.388 596.37 242.531 596.356 242.646H587.645C587.702 243.219 587.867 243.721 588.139 244.152C588.426 244.582 588.785 244.912 589.215 245.141C589.659 245.356 590.133 245.464 590.634 245.464C591.208 245.464 591.746 245.327 592.248 245.055C592.764 244.768 593.115 244.395 593.302 243.936L595.775 244.625C595.503 245.198 595.108 245.707 594.592 246.152C594.09 246.596 593.495 246.948 592.807 247.206C592.119 247.45 591.359 247.571 590.527 247.571ZM587.58 240.818H593.474C593.416 240.244 593.251 239.749 592.979 239.333C592.721 238.903 592.377 238.573 591.946 238.344C591.516 238.1 591.036 237.978 590.505 237.978C589.989 237.978 589.516 238.1 589.086 238.344C588.67 238.573 588.326 238.903 588.053 239.333C587.795 239.749 587.637 240.244 587.58 240.818Z" fill="#090808"/>
<path d="M578.452 231.655H581.334V243.743C581.334 244.259 581.42 244.61 581.592 244.797C581.764 244.969 582.001 245.055 582.302 245.055C582.532 245.055 582.768 245.026 583.012 244.969C583.256 244.912 583.471 244.84 583.657 244.754L584.044 246.948C583.657 247.134 583.205 247.278 582.689 247.378C582.173 247.478 581.707 247.528 581.291 247.528C580.388 247.528 579.685 247.292 579.183 246.819C578.696 246.331 578.452 245.643 578.452 244.754V231.655Z" fill="#090808"/>
<path d="M565.657 247.571C564.753 247.571 563.936 247.421 563.205 247.12C562.473 246.804 561.85 246.381 561.333 245.851C560.817 245.306 560.416 244.689 560.129 244.001C559.856 243.298 559.72 242.56 559.72 241.786C559.72 240.71 559.957 239.728 560.43 238.839C560.918 237.95 561.606 237.24 562.495 236.709C563.398 236.164 564.459 235.892 565.678 235.892C566.911 235.892 567.965 236.164 568.84 236.709C569.715 237.24 570.382 237.95 570.841 238.839C571.314 239.713 571.55 240.66 571.55 241.678C571.55 241.85 571.543 242.029 571.529 242.216C571.514 242.388 571.5 242.531 571.486 242.646H562.775C562.832 243.219 562.997 243.721 563.269 244.152C563.556 244.582 563.915 244.912 564.345 245.141C564.789 245.356 565.262 245.464 565.764 245.464C566.338 245.464 566.876 245.327 567.378 245.055C567.894 244.768 568.245 244.395 568.431 243.936L570.905 244.625C570.633 245.198 570.238 245.707 569.722 246.152C569.22 246.596 568.625 246.948 567.937 247.206C567.248 247.45 566.488 247.571 565.657 247.571ZM562.71 240.818H568.604C568.546 240.244 568.381 239.749 568.109 239.333C567.851 238.903 567.507 238.573 567.076 238.344C566.646 238.1 566.166 237.978 565.635 237.978C565.119 237.978 564.646 238.1 564.216 238.344C563.8 238.573 563.456 238.903 563.183 239.333C562.925 239.749 562.767 240.244 562.71 240.818Z" fill="#090808"/>
<path d="M554.948 247.356V236.086H557.83V247.356H554.948ZM554.948 234.515V231.655H557.83V234.515H554.948Z" fill="#090808"/>
<path d="M548.069 247.571C547.195 247.571 546.42 247.378 545.746 246.991C545.087 246.589 544.57 246.052 544.198 245.378V251.938H541.315V236.086H543.832V238.021C544.262 237.362 544.807 236.846 545.467 236.473C546.126 236.086 546.879 235.892 547.725 235.892C548.485 235.892 549.181 236.043 549.811 236.344C550.457 236.645 551.016 237.068 551.489 237.613C551.962 238.143 552.328 238.76 552.586 239.463C552.859 240.151 552.995 240.896 552.995 241.699C552.995 242.789 552.78 243.779 552.35 244.668C551.934 245.557 551.353 246.267 550.607 246.797C549.876 247.313 549.03 247.571 548.069 247.571ZM547.101 245.119C547.546 245.119 547.947 245.026 548.306 244.84C548.664 244.653 548.973 244.402 549.231 244.087C549.503 243.757 549.704 243.392 549.833 242.99C549.976 242.574 550.048 242.144 550.048 241.699C550.048 241.226 549.969 240.789 549.811 240.387C549.668 239.986 549.453 239.635 549.166 239.333C548.879 239.018 548.542 238.774 548.155 238.602C547.782 238.43 547.374 238.344 546.929 238.344C546.657 238.344 546.377 238.394 546.09 238.495C545.818 238.581 545.553 238.71 545.295 238.882C545.036 239.054 544.807 239.255 544.606 239.484C544.42 239.713 544.284 239.964 544.198 240.237V242.882C544.37 243.298 544.599 243.678 544.886 244.022C545.187 244.367 545.531 244.639 545.918 244.84C546.305 245.026 546.7 245.119 547.101 245.119Z" fill="#090808"/>
<path d="M533.476 247.571C532.559 247.571 531.734 247.421 531.003 247.12C530.272 246.804 529.648 246.374 529.132 245.829C528.63 245.284 528.243 244.661 527.97 243.958C527.698 243.255 527.561 242.517 527.561 241.742C527.561 240.954 527.698 240.208 527.97 239.506C528.243 238.803 528.63 238.179 529.132 237.634C529.648 237.089 530.272 236.666 531.003 236.365C531.734 236.05 532.559 235.892 533.476 235.892C534.394 235.892 535.212 236.05 535.929 236.365C536.66 236.666 537.284 237.089 537.8 237.634C538.316 238.179 538.703 238.803 538.961 239.506C539.234 240.208 539.37 240.954 539.37 241.742C539.37 242.517 539.234 243.255 538.961 243.958C538.703 244.661 538.316 245.284 537.8 245.829C537.298 246.374 536.681 246.804 535.95 247.12C535.219 247.421 534.394 247.571 533.476 247.571ZM530.53 241.742C530.53 242.402 530.659 242.99 530.917 243.506C531.175 244.008 531.526 244.402 531.971 244.689C532.415 244.976 532.917 245.119 533.476 245.119C534.021 245.119 534.516 244.976 534.961 244.689C535.405 244.388 535.756 243.987 536.015 243.485C536.287 242.969 536.423 242.381 536.423 241.721C536.423 241.076 536.287 240.495 536.015 239.979C535.756 239.463 535.405 239.061 534.961 238.774C534.516 238.487 534.021 238.344 533.476 238.344C532.917 238.344 532.415 238.495 531.971 238.796C531.526 239.083 531.175 239.484 530.917 240C530.659 240.502 530.53 241.083 530.53 241.742Z" fill="#090808"/>
<path d="M521.484 247.571C520.566 247.571 519.741 247.421 519.01 247.12C518.279 246.804 517.655 246.374 517.139 245.829C516.622 245.27 516.221 244.639 515.934 243.936C515.662 243.234 515.525 242.495 515.525 241.721C515.525 240.66 515.762 239.692 516.235 238.817C516.723 237.928 517.411 237.218 518.3 236.688C519.189 236.157 520.243 235.892 521.462 235.892C522.681 235.892 523.728 236.157 524.602 236.688C525.477 237.218 526.13 237.914 526.56 238.774L523.742 239.635C523.498 239.219 523.176 238.903 522.774 238.688C522.373 238.459 521.928 238.344 521.441 238.344C520.896 238.344 520.394 238.487 519.935 238.774C519.49 239.047 519.139 239.441 518.881 239.957C518.623 240.459 518.494 241.047 518.494 241.721C518.494 242.381 518.623 242.969 518.881 243.485C519.153 243.987 519.512 244.388 519.956 244.689C520.401 244.976 520.896 245.119 521.441 245.119C521.785 245.119 522.107 245.062 522.408 244.947C522.724 244.833 523.004 244.675 523.247 244.474C523.491 244.273 523.67 244.044 523.785 243.786L526.603 244.646C526.345 245.205 525.965 245.707 525.463 246.152C524.975 246.596 524.394 246.948 523.72 247.206C523.061 247.45 522.315 247.571 521.484 247.571Z" fill="#090808"/>
<path d="M497.664 243.14V236.085H500.546V242.517C500.546 243.377 500.704 244.03 501.02 244.474C501.335 244.904 501.801 245.119 502.418 245.119C502.791 245.119 503.156 245.048 503.515 244.904C503.888 244.747 504.225 244.517 504.526 244.216C504.841 243.915 505.106 243.535 505.321 243.076V236.085H508.204V244.13C508.204 244.431 508.254 244.646 508.354 244.775C508.469 244.904 508.648 244.983 508.892 245.012V247.356C508.605 247.399 508.361 247.428 508.161 247.442C507.974 247.471 507.802 247.485 507.644 247.485C507.128 247.485 506.705 247.371 506.375 247.141C506.06 246.897 505.874 246.568 505.816 246.152L505.752 245.248C505.25 246.008 504.605 246.589 503.816 246.991C503.027 247.378 502.16 247.571 501.213 247.571C500.052 247.571 499.17 247.199 498.568 246.453C497.965 245.693 497.664 244.589 497.664 243.14Z" fill="#090808"/>
<path d="M497.437 234.687H492.554V247.356H489.607V234.687H484.725V232.085H497.437V234.687Z" fill="#090808"/>
<rect x="227.64" y="454.383" width="172.522" height="102.169" rx="10.7546" fill="#87F176"/>
<rect x="227.64" y="454.383" width="172.522" height="102.169" rx="10.7546" stroke="black" stroke-width="0.896219"/>
<path d="M346.09 509.931H348.972V522.019C348.972 522.535 349.058 522.886 349.23 523.073C349.402 523.245 349.639 523.331 349.94 523.331C350.169 523.331 350.406 523.302 350.65 523.245C350.893 523.187 351.109 523.116 351.295 523.03L351.682 525.224C351.295 525.41 350.843 525.553 350.327 525.654C349.811 525.754 349.345 525.804 348.929 525.804C348.026 525.804 347.323 525.568 346.821 525.095C346.334 524.607 346.09 523.919 346.09 523.03V509.931Z" fill="#090808"/>
<path d="M332.707 521.416V514.361H335.59V520.793C335.59 521.653 335.747 522.306 336.063 522.75C336.378 523.18 336.844 523.395 337.461 523.395C337.834 523.395 338.199 523.324 338.558 523.18C338.931 523.023 339.268 522.793 339.569 522.492C339.884 522.191 340.15 521.811 340.365 521.352V514.361H343.247V522.406C343.247 522.707 343.297 522.922 343.398 523.051C343.512 523.18 343.691 523.259 343.935 523.288V525.632C343.648 525.675 343.405 525.704 343.204 525.718C343.018 525.747 342.845 525.761 342.688 525.761C342.171 525.761 341.748 525.647 341.419 525.417C341.103 525.173 340.917 524.844 340.859 524.428L340.795 523.524C340.293 524.284 339.648 524.865 338.859 525.267C338.07 525.654 337.203 525.847 336.256 525.847C335.095 525.847 334.213 525.475 333.611 524.729C333.009 523.969 332.707 522.865 332.707 521.416Z" fill="#090808"/>
<path d="M325.166 525.847C324.262 525.847 323.445 525.697 322.714 525.396C321.982 525.08 321.358 524.657 320.842 524.127C320.326 523.582 319.925 522.965 319.638 522.277C319.365 521.574 319.229 520.836 319.229 520.061C319.229 518.986 319.466 518.004 319.939 517.115C320.426 516.226 321.115 515.516 322.004 514.985C322.907 514.44 323.968 514.168 325.187 514.168C326.42 514.168 327.474 514.44 328.349 514.985C329.224 515.516 329.89 516.226 330.349 517.115C330.823 517.989 331.059 518.936 331.059 519.954C331.059 520.126 331.052 520.305 331.038 520.492C331.023 520.664 331.009 520.807 330.995 520.922H322.283C322.341 521.495 322.506 521.997 322.778 522.427C323.065 522.858 323.423 523.187 323.854 523.417C324.298 523.632 324.771 523.739 325.273 523.739C325.847 523.739 326.384 523.603 326.886 523.331C327.403 523.044 327.754 522.671 327.94 522.212L330.414 522.901C330.141 523.474 329.747 523.983 329.231 524.428C328.729 524.872 328.134 525.224 327.446 525.482C326.757 525.725 325.997 525.847 325.166 525.847ZM322.219 519.093H328.112C328.055 518.52 327.89 518.025 327.618 517.609C327.36 517.179 327.015 516.849 326.585 516.62C326.155 516.376 325.675 516.254 325.144 516.254C324.628 516.254 324.155 516.376 323.724 516.62C323.309 516.849 322.964 517.179 322.692 517.609C322.434 518.025 322.276 518.52 322.219 519.093Z" fill="#090808"/>
<path d="M313.462 525.847C312.501 525.847 311.583 525.69 310.708 525.374C309.834 525.059 309.081 524.593 308.45 523.976L309.482 522.105C310.156 522.65 310.816 523.051 311.461 523.309C312.121 523.567 312.752 523.696 313.354 523.696C313.913 523.696 314.358 523.596 314.688 523.395C315.032 523.195 315.204 522.893 315.204 522.492C315.204 522.22 315.111 522.012 314.924 521.868C314.738 521.71 314.465 521.574 314.107 521.46C313.763 521.345 313.34 521.216 312.838 521.072C312.006 520.8 311.311 520.535 310.751 520.277C310.192 520.018 309.769 519.696 309.482 519.309C309.21 518.907 309.074 518.398 309.074 517.781C309.074 517.036 309.26 516.398 309.633 515.867C310.02 515.322 310.551 514.899 311.225 514.598C311.913 514.297 312.716 514.146 313.634 514.146C314.437 514.146 315.197 514.275 315.914 514.534C316.631 514.777 317.283 515.179 317.871 515.738L316.709 517.566C316.136 517.122 315.591 516.799 315.075 516.598C314.559 516.383 314.035 516.276 313.505 516.276C313.203 516.276 312.917 516.312 312.644 516.383C312.386 516.455 312.171 516.577 311.999 516.749C311.841 516.907 311.762 517.136 311.762 517.437C311.762 517.71 311.834 517.925 311.977 518.083C312.135 518.226 312.365 518.355 312.666 518.47C312.981 518.584 313.361 518.713 313.806 518.857C314.709 519.115 315.469 519.38 316.086 519.653C316.717 519.925 317.19 520.262 317.505 520.664C317.821 521.051 317.978 521.589 317.978 522.277C317.978 523.395 317.57 524.27 316.752 524.901C315.935 525.532 314.838 525.847 313.462 525.847Z" fill="#090808"/>
<path d="M298.661 525.632V514.361H301.543V525.632H298.661ZM298.661 512.791V509.931H301.543V512.791H298.661Z" fill="#090808"/>
<path d="M290.822 525.847C289.904 525.847 289.079 525.697 288.348 525.396C287.617 525.08 286.993 524.65 286.477 524.105C285.975 523.56 285.588 522.936 285.315 522.234C285.043 521.531 284.907 520.793 284.907 520.018C284.907 519.23 285.043 518.484 285.315 517.781C285.588 517.079 285.975 516.455 286.477 515.91C286.993 515.365 287.617 514.942 288.348 514.641C289.079 514.326 289.904 514.168 290.822 514.168C291.739 514.168 292.557 514.326 293.274 514.641C294.005 514.942 294.629 515.365 295.145 515.91C295.661 516.455 296.048 517.079 296.307 517.781C296.579 518.484 296.715 519.23 296.715 520.018C296.715 520.793 296.579 521.531 296.307 522.234C296.048 522.936 295.661 523.56 295.145 524.105C294.643 524.65 294.027 525.08 293.295 525.396C292.564 525.697 291.739 525.847 290.822 525.847ZM287.875 520.018C287.875 520.678 288.004 521.266 288.262 521.782C288.52 522.284 288.872 522.678 289.316 522.965C289.761 523.252 290.262 523.395 290.822 523.395C291.367 523.395 291.861 523.252 292.306 522.965C292.75 522.664 293.102 522.262 293.36 521.761C293.632 521.244 293.768 520.656 293.768 519.997C293.768 519.352 293.632 518.771 293.36 518.255C293.102 517.738 292.75 517.337 292.306 517.05C291.861 516.763 291.367 516.62 290.822 516.62C290.262 516.62 289.761 516.77 289.316 517.072C288.872 517.358 288.52 517.76 288.262 518.276C288.004 518.778 287.875 519.359 287.875 520.018Z" fill="#090808"/>
<path d="M284.241 525.052C283.998 525.152 283.704 525.267 283.36 525.396C283.015 525.525 282.643 525.625 282.241 525.697C281.854 525.783 281.46 525.826 281.058 525.826C280.527 525.826 280.04 525.733 279.595 525.546C279.151 525.36 278.792 525.066 278.52 524.664C278.262 524.248 278.133 523.711 278.133 523.051V516.577H276.649V514.361H278.133V510.705H281.015V514.361H283.381V516.577H281.015V522.083C281.029 522.47 281.137 522.75 281.338 522.922C281.538 523.094 281.789 523.18 282.09 523.18C282.392 523.18 282.686 523.13 282.972 523.03C283.259 522.929 283.489 522.843 283.661 522.772L284.241 525.052Z" fill="#090808"/>
<path d="M381.12 498.774L387.336 491.289H381.378V489.267H390.433V491.031L384.26 498.516H390.541V500.538H381.12V498.774Z" fill="#090808"/>
<path d="M374.349 500.753C373.446 500.753 372.628 500.603 371.897 500.302C371.166 499.986 370.542 499.563 370.026 499.033C369.51 498.488 369.108 497.871 368.821 497.183C368.549 496.48 368.413 495.742 368.413 494.967C368.413 493.892 368.649 492.91 369.122 492.02C369.61 491.131 370.298 490.422 371.187 489.891C372.091 489.346 373.152 489.074 374.371 489.074C375.604 489.074 376.658 489.346 377.532 489.891C378.407 490.422 379.074 491.131 379.533 492.02C380.006 492.895 380.243 493.842 380.243 494.86C380.243 495.032 380.235 495.211 380.221 495.397C380.207 495.57 380.192 495.713 380.178 495.828H371.467C371.524 496.401 371.689 496.903 371.962 497.333C372.248 497.763 372.607 498.093 373.037 498.323C373.482 498.538 373.955 498.645 374.457 498.645C375.03 498.645 375.568 498.509 376.07 498.237C376.586 497.95 376.937 497.577 377.124 497.118L379.597 497.806C379.325 498.38 378.931 498.889 378.414 499.334C377.912 499.778 377.317 500.129 376.629 500.388C375.941 500.631 375.181 500.753 374.349 500.753ZM371.402 493.999H377.296C377.239 493.426 377.074 492.931 376.801 492.515C376.543 492.085 376.199 491.755 375.769 491.526C375.339 491.282 374.858 491.16 374.328 491.16C373.811 491.16 373.338 491.282 372.908 491.526C372.492 491.755 372.148 492.085 371.876 492.515C371.617 492.931 371.46 493.426 371.402 493.999Z" fill="#090808"/>
<path d="M366.616 500.538H363.734V494.214C363.734 493.34 363.562 492.687 363.218 492.257C362.888 491.827 362.429 491.612 361.841 491.612C361.497 491.612 361.131 491.712 360.744 491.913C360.357 492.114 360.006 492.393 359.69 492.752C359.389 493.096 359.167 493.497 359.023 493.956V500.538H356.141V484.836H359.023V491.354C359.439 490.637 360.006 490.078 360.723 489.676C361.44 489.275 362.221 489.074 363.067 489.074C363.798 489.074 364.394 489.203 364.852 489.461C365.311 489.705 365.67 490.042 365.928 490.472C366.186 490.888 366.365 491.361 366.466 491.891C366.566 492.408 366.616 492.945 366.616 493.505V500.538Z" fill="#090808"/>
<path d="M349.248 500.753C348.331 500.753 347.506 500.603 346.775 500.302C346.044 499.986 345.42 499.556 344.904 499.011C344.387 498.452 343.986 497.821 343.699 497.118C343.427 496.416 343.29 495.677 343.29 494.903C343.29 493.842 343.527 492.874 344 491.999C344.488 491.11 345.176 490.4 346.065 489.87C346.954 489.339 348.008 489.074 349.227 489.074C350.446 489.074 351.493 489.339 352.367 489.87C353.242 490.4 353.894 491.096 354.325 491.956L351.507 492.816C351.263 492.4 350.941 492.085 350.539 491.87C350.138 491.641 349.693 491.526 349.205 491.526C348.661 491.526 348.159 491.669 347.7 491.956C347.255 492.228 346.904 492.623 346.646 493.139C346.388 493.641 346.259 494.229 346.259 494.903C346.259 495.562 346.388 496.15 346.646 496.666C346.918 497.168 347.277 497.57 347.721 497.871C348.166 498.158 348.661 498.301 349.205 498.301C349.55 498.301 349.872 498.244 350.173 498.129C350.489 498.014 350.768 497.857 351.012 497.656C351.256 497.455 351.435 497.226 351.55 496.968L354.368 497.828C354.11 498.387 353.73 498.889 353.228 499.334C352.74 499.778 352.159 500.129 351.485 500.388C350.826 500.631 350.08 500.753 349.248 500.753Z" fill="#090808"/>
<path d="M331.184 500.753C330.28 500.753 329.463 500.603 328.732 500.302C328 499.986 327.376 499.563 326.86 499.033C326.344 498.488 325.942 497.871 325.656 497.183C325.383 496.48 325.247 495.742 325.247 494.967C325.247 493.892 325.484 492.91 325.957 492.02C326.444 491.131 327.133 490.422 328.022 489.891C328.925 489.346 329.986 489.074 331.205 489.074C332.438 489.074 333.492 489.346 334.367 489.891C335.242 490.422 335.908 491.131 336.367 492.02C336.841 492.895 337.077 493.842 337.077 494.86C337.077 495.032 337.07 495.211 337.056 495.397C337.041 495.57 337.027 495.713 337.013 495.828H328.301C328.359 496.401 328.524 496.903 328.796 497.333C329.083 497.763 329.441 498.093 329.872 498.323C330.316 498.538 330.789 498.645 331.291 498.645C331.865 498.645 332.402 498.509 332.904 498.237C333.421 497.95 333.772 497.577 333.958 497.118L336.432 497.806C336.159 498.38 335.765 498.889 335.249 499.334C334.747 499.778 334.152 500.129 333.464 500.388C332.775 500.631 332.015 500.753 331.184 500.753ZM328.237 493.999H334.13C334.073 493.426 333.908 492.931 333.636 492.515C333.378 492.085 333.033 491.755 332.603 491.526C332.173 491.282 331.693 491.16 331.162 491.16C330.646 491.16 330.173 491.282 329.742 491.526C329.327 491.755 328.982 492.085 328.71 492.515C328.452 492.931 328.294 493.426 328.237 493.999Z" fill="#090808"/>
<path d="M314.746 502.732C315.004 502.789 315.24 502.84 315.455 502.883C315.685 502.926 315.878 502.947 316.036 502.947C316.309 502.947 316.531 502.876 316.703 502.732C316.889 502.603 317.069 502.359 317.241 502.001C317.413 501.657 317.592 501.169 317.778 500.538L313.326 489.267H316.316L319.349 497.591L322.016 489.267H324.769L320.037 502.775C319.865 503.277 319.6 503.729 319.241 504.13C318.897 504.546 318.46 504.869 317.929 505.098C317.413 505.342 316.832 505.464 316.187 505.464C315.957 505.464 315.728 505.442 315.498 505.399C315.269 505.371 315.018 505.313 314.746 505.227V502.732Z" fill="#090808"/>
<path d="M301.804 497.204C301.804 496.473 302.005 495.835 302.406 495.29C302.822 494.731 303.395 494.3 304.127 493.999C304.858 493.698 305.697 493.548 306.643 493.548C307.117 493.548 307.597 493.584 308.084 493.655C308.572 493.727 308.995 493.842 309.354 493.999V493.397C309.354 492.68 309.138 492.128 308.708 491.741C308.292 491.354 307.669 491.16 306.837 491.16C306.22 491.16 305.632 491.268 305.073 491.483C304.514 491.698 303.926 492.013 303.309 492.429L302.385 490.536C303.13 490.049 303.89 489.683 304.665 489.439C305.453 489.196 306.278 489.074 307.138 489.074C308.744 489.074 309.992 489.475 310.881 490.278C311.784 491.081 312.236 492.228 312.236 493.72V497.312C312.236 497.613 312.286 497.828 312.386 497.957C312.501 498.086 312.68 498.165 312.924 498.194V500.538C312.666 500.581 312.429 500.617 312.214 500.646C312.014 500.674 311.841 500.689 311.698 500.689C311.124 500.689 310.687 500.56 310.386 500.302C310.099 500.043 309.92 499.728 309.848 499.355L309.784 498.774C309.296 499.405 308.687 499.893 307.955 500.237C307.224 500.581 306.478 500.753 305.718 500.753C304.973 500.753 304.299 500.603 303.697 500.302C303.109 499.986 302.643 499.563 302.298 499.033C301.969 498.488 301.804 497.878 301.804 497.204ZM308.816 497.785C308.974 497.613 309.103 497.441 309.203 497.269C309.303 497.097 309.354 496.939 309.354 496.796V495.656C309.009 495.512 308.637 495.405 308.235 495.333C307.834 495.247 307.454 495.204 307.095 495.204C306.349 495.204 305.733 495.369 305.245 495.699C304.772 496.014 304.535 496.437 304.535 496.968C304.535 497.254 304.614 497.527 304.772 497.785C304.93 498.043 305.159 498.251 305.46 498.409C305.761 498.566 306.12 498.645 306.536 498.645C306.966 498.645 307.389 498.566 307.805 498.409C308.221 498.237 308.558 498.029 308.816 497.785Z" fill="#090808"/>
<path d="M296.101 500.753C295.14 500.753 294.222 500.596 293.348 500.28C292.473 499.965 291.72 499.499 291.089 498.882L292.122 497.011C292.796 497.556 293.455 497.957 294.1 498.215C294.76 498.473 295.391 498.602 295.993 498.602C296.552 498.602 296.997 498.502 297.327 498.301C297.671 498.1 297.843 497.799 297.843 497.398C297.843 497.125 297.75 496.917 297.563 496.774C297.377 496.616 297.105 496.48 296.746 496.365C296.402 496.251 295.979 496.122 295.477 495.978C294.645 495.706 293.95 495.44 293.391 495.182C292.831 494.924 292.408 494.602 292.122 494.214C291.849 493.813 291.713 493.304 291.713 492.687C291.713 491.942 291.899 491.304 292.272 490.773C292.659 490.228 293.19 489.805 293.864 489.504C294.552 489.203 295.355 489.052 296.273 489.052C297.076 489.052 297.836 489.181 298.553 489.439C299.27 489.683 299.922 490.085 300.51 490.644L299.349 492.472C298.775 492.028 298.23 491.705 297.714 491.504C297.198 491.289 296.674 491.182 296.144 491.182C295.843 491.182 295.556 491.218 295.283 491.289C295.025 491.361 294.81 491.483 294.638 491.655C294.48 491.813 294.402 492.042 294.402 492.343C294.402 492.616 294.473 492.831 294.617 492.988C294.774 493.132 295.004 493.261 295.305 493.376C295.62 493.49 296 493.619 296.445 493.763C297.348 494.021 298.108 494.286 298.725 494.559C299.356 494.831 299.829 495.168 300.145 495.57C300.46 495.957 300.618 496.494 300.618 497.183C300.618 498.301 300.209 499.176 299.392 499.807C298.574 500.438 297.477 500.753 296.101 500.753Z" fill="#090808"/>
<path d="M285.472 500.753C284.511 500.753 283.594 500.596 282.719 500.28C281.844 499.965 281.091 499.499 280.461 498.882L281.493 497.011C282.167 497.556 282.827 497.957 283.472 498.215C284.131 498.473 284.762 498.602 285.365 498.602C285.924 498.602 286.368 498.502 286.698 498.301C287.042 498.1 287.214 497.799 287.214 497.398C287.214 497.125 287.121 496.917 286.935 496.774C286.748 496.616 286.476 496.48 286.117 496.365C285.773 496.251 285.35 496.122 284.848 495.978C284.017 495.706 283.321 495.44 282.762 495.182C282.203 494.924 281.78 494.602 281.493 494.214C281.221 493.813 281.084 493.304 281.084 492.687C281.084 491.942 281.271 491.304 281.644 490.773C282.031 490.228 282.561 489.805 283.235 489.504C283.924 489.203 284.727 489.052 285.644 489.052C286.447 489.052 287.207 489.181 287.924 489.439C288.641 489.683 289.294 490.085 289.882 490.644L288.72 492.472C288.147 492.028 287.602 491.705 287.085 491.504C286.569 491.289 286.046 491.182 285.515 491.182C285.214 491.182 284.927 491.218 284.655 491.289C284.397 491.361 284.182 491.483 284.01 491.655C283.852 491.813 283.773 492.042 283.773 492.343C283.773 492.616 283.845 492.831 283.988 492.988C284.146 493.132 284.375 493.261 284.676 493.376C284.992 493.49 285.372 493.619 285.816 493.763C286.72 494.021 287.48 494.286 288.096 494.559C288.727 494.831 289.2 495.168 289.516 495.57C289.831 495.957 289.989 496.494 289.989 497.183C289.989 498.301 289.58 499.176 288.763 499.807C287.946 500.438 286.849 500.753 285.472 500.753Z" fill="#090808"/>
<path d="M273.672 500.753C272.768 500.753 271.951 500.603 271.219 500.302C270.488 499.986 269.864 499.563 269.348 499.033C268.832 498.488 268.43 497.871 268.144 497.183C267.871 496.48 267.735 495.742 267.735 494.967C267.735 493.892 267.972 492.91 268.445 492.02C268.932 491.131 269.621 490.422 270.51 489.891C271.413 489.346 272.474 489.074 273.693 489.074C274.926 489.074 275.98 489.346 276.855 489.891C277.73 490.422 278.396 491.131 278.855 492.02C279.328 492.895 279.565 493.842 279.565 494.86C279.565 495.032 279.558 495.211 279.544 495.397C279.529 495.57 279.515 495.713 279.501 495.828H270.789C270.847 496.401 271.012 496.903 271.284 497.333C271.571 497.763 271.929 498.093 272.359 498.323C272.804 498.538 273.277 498.645 273.779 498.645C274.353 498.645 274.89 498.509 275.392 498.237C275.908 497.95 276.26 497.577 276.446 497.118L278.92 497.806C278.647 498.38 278.253 498.889 277.737 499.334C277.235 499.778 276.64 500.129 275.952 500.388C275.263 500.631 274.503 500.753 273.672 500.753ZM270.725 493.999H276.618C276.561 493.426 276.396 492.931 276.124 492.515C275.865 492.085 275.521 491.755 275.091 491.526C274.661 491.282 274.181 491.16 273.65 491.16C273.134 491.16 272.661 491.282 272.23 491.526C271.815 491.755 271.47 492.085 271.198 492.515C270.94 492.931 270.782 493.426 270.725 493.999Z" fill="#090808"/>
<path d="M249.874 496.322V489.267H252.756V495.699C252.756 496.559 252.914 497.211 253.229 497.656C253.545 498.086 254.011 498.301 254.627 498.301C255 498.301 255.366 498.23 255.724 498.086C256.097 497.928 256.434 497.699 256.735 497.398C257.051 497.097 257.316 496.717 257.531 496.258V489.267H260.413V497.312C260.413 497.613 260.463 497.828 260.564 497.957C260.679 498.086 260.858 498.165 261.102 498.194V500.538C260.815 500.581 260.571 500.61 260.37 500.624C260.184 500.653 260.012 500.667 259.854 500.667C259.338 500.667 258.915 500.553 258.585 500.323C258.27 500.079 258.083 499.75 258.026 499.334L257.961 498.43C257.459 499.19 256.814 499.771 256.025 500.173C255.237 500.56 254.369 500.753 253.423 500.753C252.261 500.753 251.379 500.38 250.777 499.635C250.175 498.875 249.874 497.771 249.874 496.322Z" fill="#090808"/>
<path d="M249.646 487.869H244.764V500.538H241.817V487.869H236.934V485.267H249.646V487.869Z" fill="#090808"/>
<rect x="0.448079" y="213.748" width="172.522" height="102.169" rx="10.7546" fill="#76F1EA"/>
<rect x="0.448079" y="213.748" width="172.522" height="102.169" rx="10.7546" stroke="black" stroke-width="0.896219"/>
<path d="M134.229 272.666C133.326 272.666 132.508 272.515 131.777 272.214C131.046 271.898 130.422 271.475 129.906 270.945C129.389 270.4 128.988 269.783 128.701 269.095C128.429 268.392 128.292 267.654 128.292 266.88C128.292 265.804 128.529 264.822 129.002 263.933C129.49 263.044 130.178 262.334 131.067 261.803C131.97 261.259 133.032 260.986 134.25 260.986C135.484 260.986 136.538 261.259 137.412 261.803C138.287 262.334 138.954 263.044 139.413 263.933C139.886 264.808 140.122 265.754 140.122 266.772C140.122 266.944 140.115 267.123 140.101 267.31C140.087 267.482 140.072 267.625 140.058 267.74H131.347C131.404 268.314 131.569 268.815 131.841 269.246C132.128 269.676 132.487 270.006 132.917 270.235C133.361 270.45 133.835 270.558 134.336 270.558C134.91 270.558 135.448 270.421 135.95 270.149C136.466 269.862 136.817 269.489 137.004 269.031L139.477 269.719C139.205 270.292 138.81 270.801 138.294 271.246C137.792 271.691 137.197 272.042 136.509 272.3C135.821 272.544 135.061 272.666 134.229 272.666ZM131.282 265.912H137.176C137.118 265.338 136.953 264.843 136.681 264.428C136.423 263.997 136.079 263.668 135.649 263.438C135.218 263.194 134.738 263.072 134.207 263.072C133.691 263.072 133.218 263.194 132.788 263.438C132.372 263.668 132.028 263.997 131.755 264.428C131.497 264.843 131.34 265.338 131.282 265.912Z" fill="#090808"/>
<path d="M115.598 268.235V261.18H118.481V267.611C118.481 268.471 118.638 269.124 118.954 269.568C119.269 269.998 119.735 270.214 120.352 270.214C120.725 270.214 121.09 270.142 121.449 269.998C121.822 269.841 122.159 269.611 122.46 269.31C122.775 269.009 123.041 268.629 123.256 268.17V261.18H126.138V269.224C126.138 269.525 126.188 269.74 126.288 269.869C126.403 269.998 126.582 270.077 126.826 270.106V272.45C126.539 272.493 126.296 272.522 126.095 272.537C125.908 272.565 125.736 272.58 125.579 272.58C125.062 272.58 124.639 272.465 124.31 272.235C123.994 271.992 123.808 271.662 123.75 271.246L123.686 270.343C123.184 271.103 122.539 271.683 121.75 272.085C120.961 272.472 120.094 272.666 119.147 272.666C117.986 272.666 117.104 272.293 116.502 271.547C115.9 270.787 115.598 269.683 115.598 268.235Z" fill="#090808"/>
<path d="M107.867 272.666C106.949 272.666 106.125 272.515 105.393 272.214C104.662 271.898 104.038 271.468 103.522 270.923C103.02 270.378 102.633 269.755 102.361 269.052C102.088 268.349 101.952 267.611 101.952 266.837C101.952 266.048 102.088 265.302 102.361 264.6C102.633 263.897 103.02 263.273 103.522 262.728C104.038 262.183 104.662 261.76 105.393 261.459C106.125 261.144 106.949 260.986 107.867 260.986C108.785 260.986 109.602 261.144 110.319 261.459C111.05 261.76 111.674 262.183 112.19 262.728C112.707 263.273 113.094 263.897 113.352 264.6C113.624 265.302 113.761 266.048 113.761 266.837C113.761 267.611 113.624 268.349 113.352 269.052C113.094 269.755 112.707 270.378 112.19 270.923C111.688 271.468 111.072 271.898 110.341 272.214C109.609 272.515 108.785 272.666 107.867 272.666ZM104.92 266.837C104.92 267.496 105.049 268.084 105.307 268.6C105.566 269.102 105.917 269.497 106.361 269.783C106.806 270.07 107.308 270.214 107.867 270.214C108.412 270.214 108.907 270.07 109.351 269.783C109.796 269.482 110.147 269.081 110.405 268.579C110.678 268.063 110.814 267.475 110.814 266.815C110.814 266.17 110.678 265.589 110.405 265.073C110.147 264.557 109.796 264.155 109.351 263.868C108.907 263.582 108.412 263.438 107.867 263.438C107.308 263.438 106.806 263.589 106.361 263.89C105.917 264.177 105.566 264.578 105.307 265.094C105.049 265.596 104.92 266.177 104.92 266.837Z" fill="#090808"/>
<path d="M100.156 272.451H97.2734V266.127C97.2734 265.252 97.1013 264.6 96.7571 264.169C96.4273 263.739 95.9685 263.524 95.3805 263.524C95.0364 263.524 94.6707 263.625 94.2836 263.825C93.8964 264.026 93.5451 264.306 93.2296 264.664C92.9285 265.008 92.7062 265.41 92.5628 265.869V272.451H89.6806V256.749H92.5628V263.266C92.9787 262.549 93.5451 261.99 94.2621 261.588C94.979 261.187 95.7605 260.986 96.6066 260.986C97.3379 260.986 97.933 261.115 98.3918 261.373C98.8507 261.617 99.2092 261.954 99.4673 262.384C99.7254 262.8 99.9047 263.273 100.005 263.804C100.105 264.32 100.156 264.858 100.156 265.417V272.451Z" fill="#090808"/>
<path d="M82.7879 272.666C81.8702 272.666 81.0456 272.515 80.3143 272.214C79.583 271.898 78.9592 271.468 78.443 270.923C77.9268 270.364 77.5253 269.733 77.2385 269.031C76.966 268.328 76.8298 267.589 76.8298 266.815C76.8298 265.754 77.0664 264.786 77.5396 263.911C78.0272 263.022 78.7155 262.312 79.6045 261.782C80.4936 261.251 81.5475 260.986 82.7664 260.986C83.9852 260.986 85.032 261.251 85.9067 261.782C86.7814 262.312 87.4339 263.008 87.8641 263.868L85.0464 264.729C84.8026 264.313 84.4799 263.997 84.0784 263.782C83.6769 263.553 83.2324 263.438 82.7449 263.438C82.2 263.438 81.6981 263.582 81.2392 263.868C80.7947 264.141 80.4434 264.535 80.1853 265.051C79.9272 265.553 79.7981 266.141 79.7981 266.815C79.7981 267.475 79.9272 268.063 80.1853 268.579C80.4577 269.081 80.8162 269.482 81.2607 269.783C81.7052 270.07 82.2 270.214 82.7449 270.214C83.089 270.214 83.4116 270.156 83.7128 270.041C84.0282 269.927 84.3079 269.769 84.5516 269.568C84.7954 269.368 84.9747 269.138 85.0894 268.88L87.9071 269.74C87.649 270.3 87.269 270.801 86.7671 271.246C86.2796 271.691 85.6988 272.042 85.0248 272.3C84.3652 272.544 83.6196 272.666 82.7879 272.666Z" fill="#090808"/>
<path d="M69.8902 272.666C68.9868 272.666 68.1695 272.515 67.4382 272.214C66.7069 271.898 66.0831 271.475 65.5669 270.945C65.0507 270.4 64.6491 269.783 64.3624 269.095C64.0899 268.392 63.9537 267.654 63.9537 266.88C63.9537 265.804 64.1903 264.822 64.6635 263.933C65.151 263.044 65.8393 262.334 66.7284 261.803C67.6318 261.259 68.6929 260.986 69.9117 260.986C71.1449 260.986 72.1989 261.259 73.0736 261.803C73.9483 262.334 74.6151 263.044 75.074 263.933C75.5472 264.808 75.7838 265.754 75.7838 266.772C75.7838 266.944 75.7766 267.123 75.7623 267.31C75.7479 267.482 75.7336 267.625 75.7192 267.74H67.008C67.0654 268.314 67.2303 268.815 67.5027 269.246C67.7895 269.676 68.148 270.006 68.5782 270.235C69.0227 270.45 69.4959 270.558 69.9978 270.558C70.5714 270.558 71.1091 270.421 71.611 270.149C72.1272 269.862 72.4785 269.489 72.6649 269.031L75.1385 269.719C74.866 270.292 74.4717 270.801 73.9555 271.246C73.4536 271.691 72.8585 272.042 72.1702 272.3C71.4819 272.544 70.7219 272.666 69.8902 272.666ZM66.9435 265.912H72.837C72.7796 265.338 72.6147 264.843 72.3423 264.428C72.0842 263.997 71.74 263.668 71.3098 263.438C70.8797 263.194 70.3993 263.072 69.8687 263.072C69.3525 263.072 68.8793 263.194 68.4491 263.438C68.0333 263.668 67.6891 263.997 67.4167 264.428C67.1586 264.843 67.0008 265.338 66.9435 265.912ZM70.8151 259.868L68.9653 259.308L70.1268 256.749H72.8155L70.8151 259.868Z" fill="#090808"/>
<path d="M46.0924 268.235V261.18H48.9747V267.611C48.9747 268.471 49.1324 269.124 49.4479 269.568C49.7633 269.998 50.2294 270.214 50.846 270.214C51.2188 270.214 51.5845 270.142 51.9429 269.998C52.3158 269.841 52.6527 269.611 52.9539 269.31C53.2693 269.009 53.5346 268.629 53.7497 268.17V261.18H56.632V269.224C56.632 269.525 56.6821 269.74 56.7825 269.869C56.8972 269.998 57.0765 270.077 57.3203 270.106V272.45C57.0335 272.493 56.7897 272.522 56.5889 272.537C56.4025 272.565 56.2304 272.58 56.0727 272.58C55.5565 272.58 55.1335 272.465 54.8037 272.235C54.4882 271.992 54.3018 271.662 54.2444 271.246L54.1799 270.343C53.678 271.103 53.0327 271.683 52.2441 272.085C51.4554 272.472 50.5879 272.666 49.6414 272.666C48.4799 272.666 47.5981 272.293 46.9958 271.547C46.3936 270.787 46.0924 269.683 46.0924 268.235Z" fill="#090808"/>
<path d="M45.8651 259.782H40.9825V272.451H38.0357V259.782H33.1531V257.179H45.8651V259.782Z" fill="#090808"/>
</svg>
