<svg width="167" height="63" viewBox="0 0 167 63" fill="none" xmlns="http://www.w3.org/2000/svg">
<path fill-rule="evenodd" clip-rule="evenodd" d="M24.8134 1.66984C23.9684 0.470021 22.3073 0.183801 21.1081 1.03175L13.7019 6.26864C13.4118 6.4738 13.2831 6.83327 13.367 7.16926L13.7439 7.27677C14.1693 7.39809 14.4184 7.83867 14.3018 8.26548C14.1773 8.72113 13.6897 8.9728 13.2459 8.81168L13.2313 8.80639C12.8082 8.65279 12.587 8.18771 12.736 7.76284L12.8655 7.39346C12.6782 6.81693 12.8857 6.17942 13.3876 5.82449L20.7938 0.5876C22.2386 -0.434005 24.2399 -0.0894338 25.2584 1.35664L55.1529 43.8011C56.1663 45.24 55.8233 47.2259 54.386 48.2429L37.5661 60.1441C36.1171 61.1694 34.1088 60.8197 33.0931 59.3648L3.19051 16.534C2.16065 15.0588 2.55339 13.0262 4.05854 12.0393L10.8308 7.59859C11.0697 7.44189 11.135 7.12122 10.9766 6.88404C10.8185 6.64729 10.4975 6.58354 10.2605 6.74225L1.71988 12.4616C0.475449 13.295 0.168733 14.9906 1.04222 16.2056L33.4962 61.351C34.3582 62.5502 36.0362 62.815 37.2268 61.9393L56.4513 47.8006C57.6065 46.9511 57.8759 45.3391 57.0599 44.1613L50.146 34.1825C48.6783 32.0641 50.1977 29.173 52.7763 29.173H167V29.7171H52.7763C50.6354 29.7171 49.3765 32.1163 50.5934 33.8727L57.5073 43.8516C58.4911 45.2716 58.1661 47.2149 56.7739 48.2388L37.5493 62.3775C36.1148 63.4326 34.0932 63.1138 33.0542 61.6685L0.600248 16.5231C-0.452882 15.0582 -0.0827954 13.014 1.41697 12.0096L9.95759 6.29026C10.4444 5.96428 11.1039 6.09482 11.4292 6.58198C11.7556 7.07071 11.6208 7.7312 11.1293 8.05349L4.35706 12.4942C3.10814 13.3131 2.78265 14.9991 3.63682 16.2226L33.5394 59.0535C34.3821 60.2606 36.049 60.5511 37.2517 59.7001L54.0716 47.7988C55.2641 46.955 55.5484 45.3077 54.7079 44.1143L24.8134 1.66984ZM13.3265 7.72345L13.2496 7.94278C13.1994 8.08586 13.2737 8.24299 13.4171 8.29503L13.4316 8.30031C13.5771 8.35311 13.7362 8.27043 13.7767 8.12215C13.8146 7.98344 13.7338 7.83964 13.5946 7.79993L13.3265 7.72345Z" fill="white"/>
<path d="M50.1353 6.86194H58.8506C61.304 6.86194 63.4293 7.09567 65.2266 7.56312C67.0238 8.02104 68.5121 8.69837 69.6912 9.59513C70.8704 10.4919 71.7452 11.5937 72.3158 12.9007C72.8863 14.2077 73.1716 15.7055 73.1716 17.394C73.1716 18.9013 72.8863 20.3085 72.3158 21.6154C71.7452 22.9129 70.8704 24.0481 69.6912 25.0212C68.5121 25.9847 67.0238 26.7432 65.2266 27.2965C63.4293 27.8498 61.304 28.1264 58.8506 28.1264H50.1353V6.86194ZM58.3799 25.0069C59.3308 25.0069 60.1867 24.859 60.9474 24.5633C61.7081 24.2675 62.35 23.8096 62.873 23.1895C63.4056 22.5694 63.8097 21.7824 64.0855 20.8284C64.3707 19.8649 64.5134 18.7153 64.5134 17.3797C64.5134 16.0537 64.3707 14.9232 64.0855 13.9883C63.8002 13.0534 63.3913 12.2902 62.8588 11.6987C62.3262 11.0977 61.6796 10.6636 60.9189 10.3965C60.1676 10.1198 59.3261 9.98149 58.3941 9.98149L58.3799 25.0069Z" fill="white"/>
<path d="M75.7106 20.9572C75.7106 20.1368 75.839 19.3879 76.0957 18.7105C76.3525 18.0332 76.7043 17.4274 77.1513 16.8932C77.6077 16.3494 78.145 15.8772 78.7631 15.4765C79.3812 15.0758 80.0516 14.7419 80.7743 14.4748C81.497 14.2077 82.253 14.0073 83.0423 13.8738C83.8316 13.7402 84.6303 13.6734 85.4386 13.6734C86.5037 13.6734 87.4689 13.7832 88.3342 14.0026C89.2091 14.2125 89.9841 14.5034 90.6592 14.8755C91.3439 15.2475 91.9335 15.6816 92.428 16.1777C92.932 16.6738 93.3456 17.2032 93.6689 17.7661C94.0018 18.3194 94.2443 18.8918 94.3964 19.4833C94.5581 20.0747 94.6389 20.6519 94.6389 21.2148L83.8553 22.517C84.0645 23.5759 84.4829 24.3963 85.1106 24.9783C85.7382 25.5602 86.6178 25.8512 87.7494 25.8512C88.3675 25.8512 88.9428 25.7749 89.4753 25.6222C90.0174 25.4696 90.4405 25.2835 90.7448 25.0641L91.8859 27.0675C91.5341 27.2488 91.149 27.4205 90.7306 27.5827C90.3217 27.7448 89.8652 27.8879 89.3612 28.012C88.8667 28.1264 88.3152 28.2171 87.7066 28.2839C87.1075 28.3602 86.4466 28.3983 85.7239 28.3983C83.9932 28.3983 82.5003 28.198 81.245 27.7973C79.9898 27.3871 78.9485 26.8433 78.1212 26.166C77.3034 25.4791 76.6948 24.6873 76.2954 23.7905C75.9055 22.8938 75.7106 21.9493 75.7106 20.9572ZM87.7209 19.7552C87.7209 18.515 87.564 17.6134 87.2502 17.0506C86.9459 16.4877 86.4894 16.2063 85.8808 16.2063C85.567 16.2063 85.277 16.2826 85.0107 16.4353C84.7445 16.5879 84.5162 16.8264 84.326 17.1508C84.1359 17.4751 83.9837 17.8949 83.8696 18.41C83.7555 18.9156 83.6937 19.531 83.6842 20.256L87.7209 19.7552Z" fill="white"/>
<path d="M95.3664 13.9453H103.468L106.849 23.1609L110.115 13.9453H113.31L108.047 28.1264H105.08V28.1121H101.058L95.3664 13.9453Z" fill="white"/>
<path d="M119.387 11.5842C118.683 11.5842 118.075 11.5079 117.561 11.3552C117.057 11.2026 116.643 10.9927 116.32 10.7256C115.997 10.449 115.759 10.1341 115.607 9.78116C115.455 9.41864 115.379 9.0275 115.379 8.60774C115.379 8.19753 115.455 7.81116 115.607 7.44864C115.759 7.08613 115.997 6.77131 116.32 6.50419C116.643 6.22753 117.057 6.01288 117.561 5.86024C118.075 5.70761 118.683 5.63129 119.387 5.63129C120.1 5.63129 120.709 5.70761 121.213 5.86024C121.717 6.01288 122.13 6.22753 122.454 6.50419C122.786 6.77131 123.029 7.08613 123.181 7.44864C123.333 7.81116 123.409 8.19753 123.409 8.60774C123.409 9.0275 123.333 9.41864 123.181 9.78116C123.029 10.1341 122.786 10.449 122.454 10.7256C122.13 10.9927 121.717 11.2026 121.213 11.3552C120.709 11.5079 120.1 11.5842 119.387 11.5842ZM115.521 13.9453H123.267V28.1264H115.521V13.9453Z" fill="white"/>
<path d="M127.018 26.8529C127.018 26.1278 127.199 25.4266 127.56 24.7493C127.921 24.072 128.425 23.4614 129.072 22.9176C128.178 22.4311 127.498 21.8492 127.032 21.1718C126.576 20.485 126.348 19.7122 126.348 18.8536C126.348 18.0427 126.557 17.3177 126.975 16.6785C127.403 16.0298 128.017 15.486 128.815 15.0472C129.614 14.5988 130.594 14.2602 131.754 14.0312C132.914 13.7927 134.231 13.6734 135.705 13.6734C136.209 13.6734 136.699 13.6878 137.174 13.7164V11.8704C137.174 11.2121 137.26 10.6064 137.431 10.053C137.611 9.49973 137.878 9.02273 138.23 8.62205C138.581 8.22138 139.024 7.91133 139.556 7.69191C140.098 7.46295 140.731 7.34847 141.453 7.34847C142.119 7.34847 142.713 7.44387 143.236 7.63467C143.769 7.81593 144.216 8.06874 144.577 8.3931C144.948 8.70791 145.228 9.07997 145.419 9.50927C145.609 9.93857 145.704 10.3917 145.704 10.8687C145.704 11.3362 145.618 11.7607 145.447 12.1423C145.285 12.5239 145.072 12.853 144.805 13.1297C144.539 13.4063 144.244 13.621 143.921 13.7736C143.607 13.9263 143.293 14.0026 142.979 14.0026L139.642 9.49496L139.627 9.50927L139.599 14.0169C141.358 14.3603 142.708 14.947 143.65 15.777C144.591 16.5974 145.062 17.623 145.062 18.8536C145.062 19.6645 144.848 20.4039 144.42 21.0717C144.002 21.7299 143.393 22.2975 142.594 22.7745C141.796 23.242 140.816 23.6045 139.656 23.8621C138.496 24.1197 137.179 24.2485 135.705 24.2485C134.668 24.2485 133.708 24.1865 132.824 24.0624C131.949 23.9384 131.155 23.7524 130.441 23.5043C130.365 23.6856 130.327 23.8955 130.327 24.134C130.327 24.382 130.389 24.6062 130.513 24.8065C130.646 24.9973 130.903 25.1595 131.283 25.2931C131.673 25.4266 132.215 25.5268 132.909 25.5936C133.613 25.6604 134.53 25.6938 135.662 25.6938H139.371C140.493 25.6938 141.453 25.8082 142.252 26.0372C143.06 26.2566 143.721 26.5619 144.235 26.953C144.758 27.3442 145.138 27.7973 145.376 28.3125C145.623 28.8372 145.747 29.3905 145.747 29.9724C145.747 30.7356 145.547 31.4368 145.148 32.076C144.748 32.7152 144.14 33.2637 143.322 33.7216C142.514 34.1891 141.491 34.5516 140.255 34.8092C139.019 35.0667 137.564 35.1955 135.89 35.1955C134.939 35.1955 134.017 35.1526 133.123 35.0667C132.239 34.9904 131.407 34.8759 130.627 34.7233C129.847 34.5802 129.129 34.4037 128.473 34.1938C127.817 33.9935 127.242 33.7741 126.747 33.5356L127.902 31.3748C128.502 31.6514 129.101 31.8804 129.7 32.0617C130.299 32.2525 130.907 32.4051 131.526 32.5196C132.144 32.6341 132.776 32.7151 133.423 32.7628C134.079 32.8105 134.759 32.8344 135.462 32.8344C136.261 32.8344 136.903 32.801 137.388 32.7342C137.882 32.6674 138.258 32.5816 138.515 32.4767C138.781 32.3717 138.957 32.2477 139.043 32.1046C139.138 31.971 139.185 31.8327 139.185 31.6896C139.185 31.4416 139.047 31.2365 138.772 31.0743C138.505 30.9216 138.077 30.8406 137.488 30.831L133.023 30.7881C132.006 30.7785 131.121 30.6736 130.37 30.4733C129.619 30.2825 128.991 30.0106 128.487 29.6576C127.993 29.3142 127.622 28.9039 127.375 28.4269C127.137 27.95 127.018 27.4253 127.018 26.8529ZM135.705 21.6441C135.924 21.6441 136.119 21.6011 136.29 21.5153C136.461 21.4294 136.603 21.2815 136.718 21.0717C136.841 20.8618 136.932 20.5804 136.989 20.2274C137.055 19.8649 137.088 19.4117 137.088 18.8679C137.088 18.3623 137.06 17.9426 137.003 17.6087C136.946 17.2748 136.86 17.0124 136.746 16.8216C136.632 16.6213 136.485 16.483 136.304 16.4066C136.133 16.3303 135.933 16.2922 135.705 16.2922C135.477 16.2922 135.272 16.3303 135.092 16.4066C134.92 16.483 134.778 16.6213 134.664 16.8216C134.549 17.0124 134.464 17.2748 134.407 17.6087C134.35 17.9426 134.321 18.3671 134.321 18.8822C134.321 19.4165 134.35 19.8649 134.407 20.2274C134.473 20.5804 134.564 20.8618 134.678 21.0717C134.801 21.2815 134.949 21.4294 135.12 21.5153C135.291 21.6011 135.486 21.6441 135.705 21.6441Z" fill="white"/>
<path d="M148.471 13.9453H155.304L155.988 16.006C156.996 15.2332 158.018 14.6513 159.055 14.2602C160.101 13.869 161.199 13.6734 162.35 13.6734C163.006 13.6734 163.615 13.7832 164.176 14.0026C164.746 14.222 165.241 14.5607 165.659 15.0186C166.078 15.4765 166.406 16.068 166.643 16.793C166.881 17.5085 167 18.3671 167 19.3688V29.2123H159.255V18.8822C159.255 18.3862 159.145 18.0237 158.927 17.7947C158.708 17.5657 158.389 17.4513 157.971 17.4513C157.695 17.4513 157.391 17.5085 157.058 17.623C156.725 17.7375 156.445 17.9187 156.216 18.1668V28.1264H148.471V13.9453Z" fill="white"/>
</svg>
