<svg width="111" height="112" viewBox="0 0 111 112" fill="none" xmlns="http://www.w3.org/2000/svg">
<circle cx="55.2967" cy="55.7967" r="55.2967" fill="#92E30C" fill-opacity="0.76"/>
<path d="M55.6781 94.3138C76.7399 94.3138 93.8138 77.2399 93.8138 56.1781C93.8138 35.1163 76.7399 18.0424 55.6781 18.0424C34.6163 18.0424 17.5424 35.1163 17.5424 56.1781C17.5424 77.2399 34.6163 94.3138 55.6781 94.3138Z" fill="#7124ED"/>
<path d="M38.7289 26.5171C33.2628 26.5171 26.7988 21.2925 24.7755 19.284C23.5657 18.0722 21.7395 17.7099 20.159 18.3667C18.5742 19.0213 17.5424 20.5658 17.5424 22.2798C17.5424 29.6082 21.0848 43.4663 34.4916 43.4663C36.0954 43.4663 37.5637 42.5595 38.2819 41.1231L42.5192 32.6485C43.176 31.3349 43.106 29.7756 42.3327 28.5256C41.5615 27.2777 40.1971 26.5171 38.7289 26.5171ZM91.1994 18.3667C89.6104 17.7078 87.7947 18.0722 86.5807 19.2862C84.7036 21.1612 78.1125 26.5171 72.6273 26.5171C71.1591 26.5171 69.7947 27.2777 69.0235 28.5277C68.2523 29.7756 68.1824 31.337 68.837 32.6506L73.0743 41.1252C73.7926 42.5595 75.2587 43.4663 76.8646 43.4663C90.2714 43.4663 93.8138 29.6082 93.8138 22.2798C93.8138 20.5658 92.782 19.0213 91.1994 18.3667Z" fill="#7124ED"/>
<path d="M75.4557 72.3413C75.0785 72.0002 74.515 71.979 74.1103 72.2798C74.0277 72.3413 65.801 78.4239 55.6781 78.4239C45.5806 78.4239 37.3263 72.3413 37.2458 72.2798C36.8412 71.979 36.2776 72.0044 35.9005 72.3413C35.5255 72.6802 35.4407 73.2396 35.7013 73.6718C35.9746 74.1273 42.517 84.7799 55.6781 84.7799C68.8391 84.7799 75.3836 74.1273 75.6548 73.6718C75.9154 73.2375 75.8328 72.6802 75.4557 72.3413ZM50.82 56.7989C43.9238 49.9027 32.8412 49.8221 32.3729 49.8221C31.2034 49.8221 30.2564 50.7692 30.2564 51.9366C30.2543 53.106 31.2013 54.0573 32.3708 54.0594C32.4323 54.0594 36.4492 54.1061 40.8094 55.6209C39.553 56.9768 38.7289 59.0828 38.7289 61.4747C38.7289 65.5722 41.0997 68.89 44.0255 68.89C46.9514 68.89 49.3221 65.5722 49.3221 61.4747C49.3221 61.1061 49.2819 60.7544 49.2437 60.4006C49.2713 60.4006 49.2967 60.4154 49.3221 60.4154C49.8645 60.4154 50.4069 60.2078 50.82 59.7946C51.6484 58.9662 51.6484 57.6272 50.82 56.7989ZM78.9832 49.8221C78.515 49.8221 67.4345 49.9027 60.5361 56.7989C59.7077 57.6272 59.7077 58.9662 60.5361 59.7946C60.9493 60.2078 61.4917 60.4154 62.034 60.4154C62.0616 60.4154 62.0849 60.4006 62.1103 60.4006C62.0764 60.7544 62.034 61.1061 62.034 61.4747C62.034 65.5722 64.4048 68.89 67.3307 68.89C70.2565 68.89 72.6273 65.5722 72.6273 61.4747C72.6273 59.0828 71.8031 56.9768 70.5468 55.6209C74.9069 54.1061 78.9239 54.0594 78.9875 54.0594C80.1548 54.0573 81.1019 53.106 81.0997 51.9366C81.0976 50.7692 80.1527 49.8221 78.9832 49.8221Z" fill="#C7A7FF"/>
</svg>
